<svg width="150" height="150" id="icon-bianji" viewBox="0 0 1024 1024"><path d="M367.78050125 551.96074625c-0.49982156 0.63796781-0.99964219 1.304715-1.22221125 2.11056937l-38.53515281 141.28149094c-2.25063375 8.22450375 0.0556425 17.08697531 6.14079656 23.33713782 4.55691 4.44562594 10.55764219 6.8910075 16.94786906 6.8910075 2.11152844 0 4.22305688-0.25039031 6.30676406-0.80681344l140.27897063-38.25790125c0.22352812 0 0.33481312 0.19474781 0.50078062 0.19474781 1.61074781 0 3.19559344-0.58328437 4.3909425-1.80741469l375.10663782-375.05099531c11.14092656-11.15435719 17.25390188-26.35237312 17.25390187-42.88388437 0-18.73993406-7.94629219-37.46547844-21.86645437-51.34438875l-35.42494219-35.47962469c-13.89042187-13.92016219-32.64570656-21.879885-51.37221-21.879885-16.52959312 0-31.72760906 6.11297531-42.898275 17.23951125L368.33596438 550.65507219C367.94838687 551.0148275 368.05871188 551.54342938 367.78050125 551.96074625M840.99214344 273.12291875l-37.25825906 37.23139688-60.40160813-61.36095751 36.73157625-36.73061625c5.80598344-5.83380469 17.057235-4.98573937 23.72663344 1.70860125l35.44988531 35.48058375c3.69733313 3.69541406 5.8079025 8.61208125 5.8079025 13.474065C845.02237063 266.91400813 843.6034925 270.52595937 840.99214344 273.12291875M434.48983156 557.8511525l270.66800719-270.68335687 60.43038844 61.40220937L495.42004156 618.72380094 434.48983156 557.8511525zM385.17350844 667.596905l19.55921906-71.79388406 52.17806344 52.1790225L385.17350844 667.596905z"  ></path><path d="M864.74851625 421.75206781c-14.19837375 0-25.84008 11.54385281-25.89380438 25.93601532l0 349.67140312c0 18.33700781-14.89294219 33.22899094-33.25873031 33.22899094L214.08214813 830.58847719c-18.33700781 0-33.2855925-14.89102406-33.28559251-33.22899094L180.79655562 226.62708313c0-18.3523575 14.94858469-33.25777125 33.28559251-33.25777126l380.96922281 0c14.27991844 0 25.86790125-11.59853625 25.86790125-25.88133281 0-14.25209719-11.58798375-25.86598313-25.86790125-25.86598312L210.13730281 141.62199594c-44.70377062 0-81.08710312 36.35551125-81.08710312 81.08710312L129.05019969 801.30529062c0 44.73159187 36.3833325 81.0727125 81.08710312 81.0727125l599.37570282 1e-8c44.73351094 0 81.10245281-36.34112063 81.10245281-81.0727125L890.61545844 447.52115656C890.55693875 433.29592156 878.94593094 421.75206781 864.74851625 421.75206781"  ></path></svg>