<svg width="150" height="150" id="icon-biaoge" viewBox="0 0 1024 1024"><path d="M877.625 887.00000029H146.375a46.92773408 46.92773408 0 0 1-46.87499971-46.87500058V221.37499971a46.92773408 46.92773408 0 0 1 46.87499971-46.87499971h731.25a46.92773408 46.92773408 0 0 1 46.87499971 46.87499971v618.75a46.92773408 46.92773408 0 0 1-46.87499971 46.87500058z m-215.62499971-37.50000029h215.62499971a9.37500029 9.37500029 0 0 0 9.37500029-9.37500029v-178.12499942h-225z m-262.50000029 0h225v-187.49999971H399.5z m-262.50000029-187.49999971v178.12499942a9.37500029 9.37500029 0 0 0 9.37500029 9.37500029h215.62499971v-187.49999971z m525.00000058-37.50000029h225V437.00000029h-225z m-262.50000029 0h225V437.00000029H399.5z m-262.50000029 0h225V437.00000029H136.99999971z m750.00000058-225V221.37499971a9.37500029 9.37500029 0 0 0-9.37500029-9.37499942H146.375a9.37500029 9.37500029 0 0 0-9.37500029 9.37499942v178.12500029z"  ></path></svg>