<svg width="150" height="150" id="icon-bofang" viewBox="0 0 1024 1024"><path d="M839.14210923 547.80692859L554.04594568 711.96732682 268.9627275 876.72321264c-19.28862025 11.36604603-44.68746114 4.66033778-56.07939792-15.19787931-3.79299714-6.4338552-5.26877076-13.42436187-5.26877077-20.45370469h-0.59548761V182.64357294c0-22.75798282 18.69313264-40.894464 41.48995161-40.894464 8.19442725 0 16.06521995 2.34311427 22.79681897 7.02934281L554.04594568 311.77376553 839.14210923 476.52965136c19.85821709 11.09419298 26.2920723 36.79077769 14.90013551 56.07939792-3.80594252 6.4338552-8.4662803 11.40488217-14.90013551 15.19787931z m-325.97768217 93.16791941l223.17839802-129.38910025-223.17839802-128.83244878-223.77388563-128.8324488v516.15829966l223.77388563-129.10430183z" fill="#717071" ></path></svg>