<svg width="150" height="150" id="icon-chakan" viewBox="0 0 1024 1024"><path d="M360.5204267 907.50754908H147.02538057C130.15038625 907.50754908 116.4921875 893.92845191 116.4921875 877.18529298V146.81444282C116.4921875 130.09765162 130.15038625 116.4921875 147.02538057 116.4921875h463.2185955c8.17382555 0 15.87304173 3.16406173 21.62108656 8.83300498l118.8368744 118.07222647c5.66894326 5.74804482 8.88573884 13.39452711 8.88573884 21.48925037v131.36128435c0 16.76952585-13.65819875 30.32225532-30.5331923 30.32225532-16.87499434 0-30.50682615-13.55272948-30.50682615-30.32225532V277.46381388l-101.03902903-100.30074803H177.47947211v669.75270645h182.96185303c16.87499434 0 30.53319308 13.57909718 30.53319308 30.32225533A30.32225532 30.32225532 0 0 1 360.5204267 907.50754908z m430.04868471-148.20991176c-12.28710525 0-23.46678941 7.38280992-28.13378005 18.66796258-4.74609221 11.28515265-2.10937449 24.3105389 6.59179506 32.95897305l86.27340841 85.74606516a30.71776313 30.71776313 0 0 0 43.26854078 0 30.11131834 30.11131834 0 0 0 0-42.82029833l-86.27340917-85.71969747a31.37694257 31.37694257 0 0 0-21.72655503-8.83300499zM400.86220969 446.08192105H278.86127431c-16.87499434 0-30.53319308 13.57909718-30.53319309 30.32225609 0 16.76952585 13.65819875 30.34862302 30.53319309 30.34862225h122.00093536c16.87499434 0 30.53319308-13.57909718 30.53319309-30.32225533 0-16.76952585-13.65819875-30.34862302-30.53319309-30.34862301z m122.02730304-131.83589296H278.86127431C261.98627997 314.24602809 248.32808122 327.8251245 248.32808122 344.56828341c0 16.76952585 13.65819875 30.34862302 30.53319309 30.34862226h244.02823842c16.87499434 0 30.53319308-13.57909718 30.53319309-30.32225533 0-16.76952585-13.65819875-30.34862302-30.53319309-30.34862225z m-122.02730304 263.67178668H278.86127431c-16.87499434 0-30.53319308 13.57909718-30.53319309 30.32225532 0 16.76952585 13.65819875 30.34862302 30.53319309 30.34862303h122.00093536c16.87499434 0 30.53319308-13.57909718 30.53319309-30.32225532 0-16.76952585-13.65819875-30.34862302-30.53319309-30.34862303z m264.01456062-37.70506526c67.31540727 0 122.02730307 54.3691226 122.02730306 121.23628745s-54.73826272 121.26265515-122.02730306 121.26265514-122.00093614-54.39548953-122.00093614-121.26265514 54.73826272-121.26265515 122.00093614-121.26265437z m0-60.59177678c-101.09176289 0-182.98821997 81.4482154-182.98821997 181.82806423 0 100.45895116 81.97555865 181.82806423 182.98821997 181.82806423 101.11813058 0 182.98821997-81.4482154 182.98821997-181.82806423s-81.94919171-181.82806423-182.98821997-181.82806423z"  ></path></svg>