<svg width="150" height="150" id="icon-duankai" viewBox="0 0 1024 1024"><path d="M643.87285131 709.75390625a32.95898463 32.95898463 0 0 1 32.95898463 32.95898463v131.83593699a32.95898463 32.95898463 0 0 1-65.9179685 0v-131.83593699a32.95898463 32.95898463 0 0 1 32.95898387-32.95898463z m-299.99267578-242.80883764a32.95898463 32.95898463 0 0 1 0 46.6040034l-126.92504858 126.95800782a117.79541041 117.79541041 0 0 0 166.60766602 166.57470753l126.92504857-126.95800781a32.95898463 32.95898463 0 0 1 46.60400416 46.63696264l-126.92504857 126.92504857a183.71337891 183.71337891 0 0 1-259.81567434-259.81567357l126.92504934-126.92504858a32.95898463 32.95898463 0 0 1 46.6040034 0z m435.8166509 266.11083934l93.24096679 93.2409668a32.95898463 32.95898463 0 0 1-46.60400416 46.60400416l-93.24096679-93.2409668a32.95898463 32.95898463 0 1 1 46.60400416-46.60400416zM874.58574219 610.87695313a32.95898463 32.95898463 0 0 1 0 65.91796849h-131.83593776a32.95898463 32.95898463 0 0 1 0-65.9179685h131.83593776z m-20.86303711-440.56274389a183.71337891 183.71337891 0 0 1 0 259.81567357l-126.92504858 126.92504858a32.95898463 32.95898463 0 1 1-46.60400416-46.6040034l126.92504858-126.95800782a117.79541041 117.79541041 0 0 0-166.60766602-166.57470753l-126.92504857 126.95800781a32.95898463 32.95898463 0 0 1-46.60400416-46.63696264l126.92504933-126.92504857a183.71337891 183.71337891 0 0 1 259.81567358 0zM281.32402344 347.20507838a32.95898463 32.95898463 0 0 1 0 65.91796849H149.48808568a32.95898463 32.95898463 0 0 1 0-65.91796849h131.83593776zM219.39409154 172.75317383L312.63505834 265.99414062A32.95898463 32.95898463 0 0 1 266.03105494 312.59814478L172.79008814 219.32421875a32.95898463 32.95898463 0 1 1 46.6040034-46.60400416zM380.20097656 116.4921875a32.95898463 32.95898463 0 0 1 32.95898463 32.95898463v131.83593699a32.95898463 32.95898463 0 0 1-65.91796926 0V149.45117213a32.95898463 32.95898463 0 0 1 32.95898463-32.95898463z"  ></path></svg>