<svg width="150" height="150" id="icon-fenlei" viewBox="0 0 1024 1024"><path d="M567.96875 708.875a140.90625 140.90625 0 1 0 140.90625-140.90625H589.24999971c-11.83124971 0-21.2625 9.45-21.2625 21.2625V708.875zM708.875 530.74999971A178.12500029 178.12500029 0 1 1 530.74999971 708.875V589.24999971A58.3875 58.3875 0 0 1 589.23125 530.74999971H708.875zM493.25000029 708.875a178.12500029 178.12500029 0 1 1-178.12500029-178.12500029h119.64375A58.3875 58.3875 0 0 1 493.25000029 589.23125V708.875z m-178.12500029-140.90625a140.90625 140.90625 0 1 0 140.90625 140.90625V589.24999971c0-11.8125-9.43125029-21.2625-21.2625-21.2625H315.125zM530.74999971 315.10625029A178.12500029 178.12500029 0 1 1 708.875 493.25000029H589.24999971A58.3875 58.3875 0 0 1 530.74999971 434.76875V315.125z m178.12500029 140.92499971a140.90625 140.90625 0 1 0-140.90625-140.90625v119.64375c0 11.8125 9.43125029 21.2625 21.2625 21.2625H708.875zM456.03125 315.125a140.90625 140.90625 0 1 0-140.90625 140.90625h119.64375c11.83124971 0 21.2625-9.45 21.2625-21.2625V315.125zM315.125 493.25000029A178.12500029 178.12500029 0 1 1 493.25000029 315.125v119.64375A58.3875 58.3875 0 0 1 434.76875 493.25000029H315.125z"  ></path></svg>