<svg width="150" height="150" id="icon-github" viewBox="0 0 1024 1024"><path d="M661.60342636 924.59914385c-22.44051387 0-37.40085615-14.96034229-37.40085703-37.40085703v-145.86334014c3.74008535-29.92068545-7.48017158-52.36119932-26.18059922-71.06162783-11.22025693-11.22025693-14.96034229-26.18059922-7.48017157-37.40085703 3.74008535-14.96034229 18.70042852-22.44051387 29.92068544-26.18059922 108.46248398-11.22025693 209.44479638-48.62111396 209.44479639-224.40513955 0-41.14094238-14.96034229-82.28188477-44.88102774-115.94265469-11.22025693-11.22025693-11.22025693-26.18059922-7.4801707-37.40085703 11.22025693-29.92068545 11.22025693-59.84137089 3.74008536-89.76205547-18.70042852 3.74008535-48.62111396 14.96034229-97.24222706 48.62111309-7.48017158 7.48017158-18.70042852 7.48017158-29.92068544 3.74008623-78.54179854-22.44051387-164.56376865-22.44051387-243.10556718 0-11.22025693 3.74008535-22.44051387 3.74008535-33.66077081-3.74008623C332.47588818 154.14149815 298.81511739 142.92124121 280.11468974 139.18115586c-7.48017158 29.92068545-7.48017158 59.84137089 3.74008536 89.76205547 3.74008535 14.96034229 3.74008535 29.92068545-7.48017158 37.40085703-29.92068545 33.66077081-44.88102773 74.80171318-44.88102774 115.94265469 0 175.78402559 100.98231241 213.18488261 209.44479639 224.40513955 14.96034229 0 26.18059922 11.22025693 29.92068544 26.18059922 3.74008535 14.96034229 0 29.92068545-7.48017157 37.40085703-18.70042852 18.70042852-26.18059922 41.14094238-26.18059922 67.3215416v145.86334101c0 22.44051387-14.96034229 37.40085615-37.40085616 37.40085616s-37.40085615-14.96034229-37.40085703-37.40085616v-63.58145625c-112.20256934 18.70042852-160.8236833-44.88102773-194.4844541-86.02197011-14.96034229-18.70042852-26.18059922-33.66077081-41.14094238-37.40085703-18.70042852-3.74008535-33.66077081-26.18059922-26.18059922-44.88102774 3.74008535-18.70042852 26.18059922-33.66077081 44.88102774-26.18059922 37.40085615 11.22025693 59.84137089 37.40085615 82.28188476 63.58145626 29.92068545 41.14094238 56.10128467 71.06162783 134.64308321 56.10128466v-3.74008535c0-22.44051387 3.74008535-48.62111396 11.22025693-67.32154248-104.72239863-22.44051387-216.92496797-89.76205547-216.92496797-287.98659493 0-56.10128467 18.70042852-108.46248398 52.36119931-149.60342636-14.96034229-52.36119932-11.22025693-100.98231241 11.22025694-149.60342637 3.74008535-11.22025693 11.22025693-18.70042852 22.44051386-22.44051386 14.96034229-3.74008535 63.58145625-11.22025693 164.56376864 52.36119931 82.28188477-18.70042852 168.30385489-18.70042852 246.84565344 0 97.24222705-63.58145625 149.60342636-56.10128467 164.56376864-52.36119931 11.22025693 3.74008535 18.70042852 11.22025693 22.44051475 22.44051386 18.70042852 48.62111396 22.44051387 97.24222705 11.22025693 145.86334014 33.66077081 41.14094238 52.36119932 93.5021417 52.36119844 149.60342637 0 213.18488261-127.1629125 269.28616729-216.92496797 291.72668115 7.48017158 22.44051387 11.22025693 48.62111396 11.22025694 71.06162783V887.19828682c0 22.44051387-14.96034229 37.40085615-37.40085616 37.40085703z"  ></path></svg>