<svg width="150" height="150" id="icon-gongren" viewBox="0 0 1024 1024"><path d="M276 1004.8c-34.4-8-158.4-57.6-168.8-126.4-7.2-44.8 10.4-88.8 48.8-120.8 28.8-24 100.8-69.6 130.4-84.8 11.2-5.6 27.2-12 41.6-18.4 40.8-17.6 56.8-25.6 60.8-32.8 4.8-11.2 4.8-19.2 0.8-40.8v-1.6l-1.6-1.6C371.2 560 330.4 510.4 320 480c-10.4-30.4-21.6-92-22.4-120v-6.4H214.4c1.6-12.8 7.2-40 16-55.2 12.8-22.4 32.8-41.6 36-43.2l3.2-1.6V248c0-18.4 10.4-82.4 56.8-128.8 56-56 134.4-96 185.6-96h3.2c51.2 0 129.6 40.8 185.6 96 46.4 46.4 56.8 110.4 56.8 128.8v4l3.2 1.6c3.2 1.6 23.2 20.8 36 43.2 8.8 15.2 13.6 42.4 16 55.2H728.8v6.4c0 28-12 89.6-22.4 120-10.4 30.4-51.2 80-68 97.6l-1.6 1.6v1.6c-4 21.6-4.8 29.6 0.8 40.8 3.2 8 19.2 15.2 60.8 32.8 14.4 6.4 29.6 12.8 41.6 18.4 30.4 15.2 101.6 60.8 130.4 84.8 38.4 32 56 76 48.8 120.8-11.2 68.8-134.4 118.4-168.8 126.4-25.6-8.8-163.2-20.8-212-20.8h-14.4c-3.2 0-6.4 0.8-11.2 0.8-4 0-8-0.8-11.2-0.8h-14.4c-48 1.6-185.6 13.6-211.2 22.4z m467.2-39.2l2.4-0.8c12-2.4 120.8-27.2 136-104.8 8-44-43.2-82.4-68-100-16.8-12.8-31.2-21.6-49.6-31.2l-8-4-41.6 234.4 6.4 0.8c10.4 1.6 17.6 3.2 20 4l2.4 1.6zM262.4 728.8c-21.6 11.2-35.2 20.8-49.6 31.2-24.8 18.4-76 56.8-68 100 15.2 77.6 123.2 102.4 136 104.8l2.4 0.8 1.6-1.6c2.4-0.8 10.4-2.4 20-4l6.4-0.8-41.6-234.4-7.2 4z m265.6 216c45.6 0.8 87.2 3.2 119.2 6.4l6.4 0.8 36.8-257.6-8-4c-6.4-3.2-13.6-5.6-20.8-8.8-27.2-11.2-55.2-22.4-66.4-61.6-1.6-7.2-2.4-14.4-1.6-22.4 0.8-9.6 4-17.6 7.2-28 0.8-4 2.4-7.2 4-12 18.4-16 44.8-54.4 58.4-80.8l8.8-18.4c6.4-16.8 12-56 15.2-85.6l0.8-7.2H338.4l0.8 7.2c4.8 43.2 10.4 72 15.2 85.6l8.8 18.4c14.4 27.2 40.8 65.6 59.2 81.6 1.6 4 2.4 8 4 11.2 3.2 9.6 6.4 18.4 7.2 28 0.8 8 0.8 15.2-1.6 22.4-11.2 39.2-39.2 50.4-66.4 61.6-7.2 3.2-14.4 5.6-20.8 8.8l-8 4 36.8 257.6 6.4-0.8c32.8-3.2 73.6-5.6 119.2-6.4H528zM308.8 261.6c-6.4 3.2-16 8.8-26.4 26.4-5.6 8.8-6.4 16-7.2 20.8l-0.8 7.2H751.2l-0.8-7.2c0-4.8-1.6-11.2-6.4-20.8-10.4-17.6-20.8-23.2-26.4-26.4 0-23.2 0.8-69.6-41.6-112-55.2-56-116.8-88.8-162.4-88.8-60.8 0-122.4 48.8-162.4 88.8-42.4 42.4-42.4 89.6-42.4 112z" fill="#1296db" ></path></svg>