<svg width="150" height="150" id="icon-jindu" viewBox="0 0 1024 1024"><path d="M849.19527442 885.53626894a289.99866797 289.99866797 0 0 0-1e-8-35.96882782 337.20775313 337.20775313 0 0 0-182.8415373-299.74022491A337.20775313 337.20775313 0 0 0 828.21345839 133.18830371 36.71817715 36.71817715 0 0 0 849.19527442 100.21687842a37.46752822 37.46752822 0 0 0-37.46752823-37.46752822H212.24729638a37.46752822 37.46752822 0 0 0-37.46752822 37.46752822 36.71817715 36.71817715 0 0 0 20.98181514 33.72077549 337.20775313 337.20775313 0 0 0 161.85972217 415.88956231 337.20775313 337.20775313 0 0 0-182.84153731 299.7402249 289.99866797 289.99866797 0 0 0 0 35.96882783 37.46752822 37.46752822 0 0 0-37.46752822 38.96622861 37.46752822 37.46752822 0 0 0 37.46752822 37.46752822h672.91680499a37.46752822 37.46752822 0 0 0 38.96622948-37.46752822 37.46752822 37.46752822 0 0 0-37.46752822-38.96622861z m-599.48044981-635.44927763a260.02464521 260.02464521 0 0 1 25.47791894-112.40258467h473.58955547a262.27269667 262.27269667 0 1 1-499.06747441 112.40258467z m524.54539336 635.44927763H251.96287607a281.00646123 281.00646123 0 0 1 0-35.96882782 262.27269667 262.27269667 0 0 1 524.54539424 0 281.00646123 281.00646123 0 0 1-4.4961038 35.96882782z"  ></path><path d="M705.3199666 365.48697763H318.65507598a224.80516846 224.80516846 0 0 0 386.66489062 0z"  ></path></svg>