<svg width="150" height="150" id="icon-linggan" viewBox="0 0 1024 1024"><path d="M621.87088533 869.07765013H402.1280224c-40.39739947 0-73.24798507-32.85931733-73.247984-73.24798506v-54.9354432c0-20.22489707 16.39800427-36.62399253 36.62399253-36.62399254 20.22489707 0 36.62399253 16.39800427 36.62399147 36.62399254v54.9354432h219.74286293v-54.91797867c0-20.22489707 16.39800427-36.62399253 36.62399254-36.62399253s36.62399253 16.39800427 36.62399253 36.62399253v54.91797867c0 40.38866773-32.85058453 73.24798507-73.24798507 73.24798506zM603.55943573 988.48956907H420.44056427c-20.22489707 0-36.62399253-16.39800427-36.62399147-36.62399254s16.39800427-36.62399253 36.62399147-36.62399146h183.11887146c20.22489707 0 36.62399253 16.39800427 36.62399147 36.62399146s-16.39909547 36.62399253-36.62399147 36.62399254z"  ></path><path d="M658.5134336 775.6669856c-14.10907307 0-27.5577728-8.20828053-33.58409067-21.96915627-8.10131093-18.53521387 0.3754848-40.12888427 18.90196694-48.2203712 110.69389653-48.37318507 179.4709888-157.73432747 179.47098773-285.41783573 0-171.65674987-139.64664-311.3022976-311.3022976-311.30229867s-311.30338987 139.64664-311.30338987 311.30338987c0 127.67368427 68.77709227 237.03591893 179.4709888 285.41783573 18.5439456 8.10131093 27.0032768 29.68515733 18.90196587 48.2203712-8.11877547 18.53521387-29.7211776 27.02074133-48.23019413 18.89323414C213.05378347 712.380272 127.44971733 577.29402987 127.44971733 420.0607136c0-212.04432533 172.51468907-384.55028267 384.55028267-384.55028267S896.55028267 208.015296 896.55028267 420.0607136c0 157.24314027-85.60515733 292.3293824-223.39074454 352.53144107a36.4045952 36.4045952 0 0 1-14.64610453 3.07483093z"  ></path><path d="M374.66084693 392.96793173H283.10141227c0-116.12205867 94.4749024-210.58713813 210.58713706-210.58713813v91.55943573c-65.6302208 0-119.0277024 53.3974816-119.0277024 119.0277024z"  ></path></svg>