<svg width="150" height="150" id="icon-paizhao1" viewBox="0 0 1024 1024"><path d="M880.128 853.845H178.005c-60.928 0-110.421-49.493-110.421-110.421V340.48c0-60.928 49.493-110.421 110.421-110.421h155.307l18.773-70.486a77.995 77.995 0 0 1 75.264-57.856h211.456a77.995 77.995 0 0 1 75.264 57.686l18.774 70.485h147.456c60.928 0 110.421 49.493 110.421 110.421v403.115c-0.17 60.928-49.664 110.421-110.592 110.421z m-702.123-555.52c-23.21 0-42.154 18.944-42.154 42.155v403.115c0 23.21 18.944 42.154 42.154 42.154H880.3c23.21 0 42.154-18.944 42.154-42.154V340.48c0-23.21-18.944-42.155-42.154-42.155H680.277l-32.256-121.002a9.626 9.626 0 0 0-9.216-7.168H427.35c-4.266 0-8.192 2.901-9.216 7.168l-32.256 121.173H178.005z" fill="#d4237a" ></path><path d="M529.067 665.6c-84.651 0-153.6-68.95-153.6-153.6s68.949-153.6 153.6-153.6 153.6 68.95 153.6 153.6-68.95 153.6-153.6 153.6z m0-238.933c-47.104 0-85.334 38.229-85.334 85.333s38.23 85.333 85.334 85.333S614.4 559.104 614.4 512s-38.23-85.333-85.333-85.333z" fill="#1296db" ></path></svg>