<svg width="150" height="150" id="icon-quanping" viewBox="0 0 1024 1024"><path d="M846.3125 122H707c-7.125 0-14.25 2.71875-19.6875 8.15625-5.4375 5.4375-8.15625 12.5625-8.15625 19.6875s2.71875 14.25 8.15625 19.6875c5.4375 5.4375 12.5625 8.15625 19.6875 8.15625h99.84375L575.84375 408.6875c-10.875 10.875-10.875 28.5 0 39.375 10.875 10.875 28.5 10.875 39.375 0l231-231V317c0 7.125 2.71875 14.25 8.15625 19.6875 5.4375 5.4375 12.5625 8.15625 19.6875 8.15625s14.25-2.71875 19.6875-8.15625c5.4375-5.4375 8.15625-12.5625 8.15625-19.6875V177.6875c0.09375-30.75-24.84375-55.6875-55.59375-55.6875zM874.15625 679.15625c-7.125 0-14.25 2.71875-19.6875 8.15625-5.4375 5.4375-8.15625 12.5625-8.15625 19.6875v99.84375L615.3125 575.84375c-10.875-10.875-28.5-10.875-39.375 0s-10.875 28.5 0 39.375l231 231H707c-7.125 0-14.25 2.71875-19.6875 8.15625-5.4375 5.4375-8.15625 12.5625-8.15625 19.6875s2.71875 14.25 8.15625 19.6875c5.4375 5.4375 12.5625 8.15625 19.6875 8.15625h139.3125c30.75 0 55.6875-24.9375 55.6875-55.6875V707c0-7.125-2.71875-14.25-8.15625-19.6875-5.4375-5.4375-12.5625-8.15625-19.6875-8.15625zM408.6875 575.84375L177.6875 806.84375V707c0-7.125-2.71875-14.25-8.15625-19.6875-5.4375-5.4375-12.5625-8.15625-19.6875-8.15625s-14.25 2.71875-19.6875 8.15625c-5.4375 5.4375-8.15625 12.5625-8.15625 19.6875v139.3125c0 30.75 24.9375 55.6875 55.6875 55.6875H317c7.125 0 14.25-2.71875 19.6875-8.15625 5.4375-5.4375 8.15625-12.5625 8.15625-19.6875s-2.71875-14.25-8.15625-19.6875c-5.4375-5.4375-12.5625-8.15625-19.6875-8.15625H217.15625l231-231c10.875-10.875 10.875-28.5 0-39.375-10.875-10.96875-28.59375-10.96875-39.46875-0.09375zM217.15625 177.6875H317c7.125 0 14.25-2.71875 19.6875-8.15625 5.4375-5.4375 8.15625-12.5625 8.15625-19.6875s-2.71875-14.25-8.15625-19.6875c-5.4375-5.4375-12.5625-8.15625-19.6875-8.15625H177.6875C146.9375 122 122 146.9375 122 177.6875V317c0 7.125 2.71875 14.25 8.15625 19.6875 5.4375 5.4375 12.5625 8.15625 19.6875 8.15625s14.25-2.71875 19.6875-8.15625c5.4375-5.4375 8.15625-12.5625 8.15625-19.6875V217.15625l231 231c10.875 10.875 28.5 10.875 39.375 0 10.875-10.875 10.875-28.5 0-39.375L217.15625 177.6875z"  ></path></svg>