<svg width="150" height="150" id="icon-quxiaoquanping" viewBox="0 0 1024 1024"><path d="M765.06453333 716.8H887.46666667a34.13333333 34.13333333 0 1 0 0-68.26666667H682.66666667a34.13333333 34.13333333 0 0 0-34.13333334 34.13333334v204.8a34.13333333 34.13333333 0 1 0 68.26666667 0v-122.40213334l146.51733333 146.51733334a34.13333333 34.13333333 0 1 0 48.24746667-48.2816L765.06453333 716.8zM307.2 765.06453333V887.46666667a34.13333333 34.13333333 0 1 0 68.26666667 0V682.66666667a34.13333333 34.13333333 0 0 0-34.13333334-34.13333334H136.53333333a34.13333333 34.13333333 0 1 0 0 68.26666667h122.40213334l-146.51733334 146.51733333a34.13333333 34.13333333 0 1 0 48.2816 48.24746667L307.2 765.06453333zM765.06453333 307.2H887.46666667a34.13333333 34.13333333 0 1 1 0 68.26666667H682.66666667a34.13333333 34.13333333 0 0 1-34.13333334-34.13333334V136.53333333a34.13333333 34.13333333 0 1 1 68.26666667 0v122.40213334l146.51733333-146.51733334a34.13333333 34.13333333 0 1 1 48.24746667 48.2816L765.06453333 307.2zM307.2 258.93546667V136.53333333a34.13333333 34.13333333 0 1 1 68.26666667 0v204.8a34.13333333 34.13333333 0 0 1-34.13333334 34.13333334H136.53333333a34.13333333 34.13333333 0 1 1 0-68.26666667h122.40213334l-146.51733334-146.51733333a34.13333333 34.13333333 0 1 1 48.2816-48.24746667L307.2 258.93546667z"  ></path></svg>