<svg width="150" height="150" id="icon-renwu" viewBox="0 0 1024 1024"><path d="M886.58984375 383.59179687c-0.52734375-78.48632813-1.14257813-159.609375-0.43945313-235.72265624 0.08789063-7.47070313-3.69140625-14.50195313-9.93164062-18.54492188-6.24023438-4.13085938-14.15039063-4.74609375-21.00585938-1.66992188-109.16015625 48.77929688-196.78710938 67.76367188-260.50781249 56.51367188-35.5078125-6.24023438-62.13867188-16.34765625-90.35156251-27.0703125-35.15625-13.359375-71.54296875-27.15820313-125.68359375-33.75-73.30078125-8.7890625-148.79882813-0.43945313-224.56054687 24.78515625-8.96484375 2.98828125-15.02929688 11.42578125-15.02929688 20.83007813V526.0625l-1.75781249 356.22070313c-0.08789063 12.12890625 9.75585938 22.06054688 21.88476562 22.06054687h0.08789063c12.04101563 0 21.88476563-9.75585938 21.97265624-21.88476563l1.14257813-220.42968749c53.0859375-13.53515625 106.61132813-18.6328125 159.2578125-15.20507813 60.20507813 3.95507813 101.6015625 18.10546875 141.59179688 31.81640625 34.98046875 11.953125 71.19140625 24.34570313 117.50976562 28.828125 11.77734375 1.14257813 23.5546875 1.66992188 35.5078125 1.66992187 76.90429688 0 157.41210938-23.64257813 239.765625-70.40039062 6.85546875-3.8671875 11.07421875-11.07421875 11.16210938-18.89648438 0.52734375-76.2890625 0-157.58789063-0.61523438-236.25z m-43.33007813 223.15429688c-83.23242188 45.08789063-163.30078125 64.24804688-238.35937499 57.04101563-41.22070313-3.95507813-73.38867188-15.02929688-107.49023438-26.63085938-42.71484375-14.58984375-86.8359375-29.70703125-152.84179688-34.01367188-11.6015625-0.79101563-23.29101563-1.14257813-34.98046874-1.14257812-42.01171875 0-84.375 4.921875-126.47460938 14.765625V526.32617188l1.66992188-341.71875001c63.89648438-19.07226563 127.265625-24.9609375 188.61328124-17.57812499 48.77929688 5.88867188 81.12304688 18.19335938 115.31250001 31.20117187 28.91601563 10.98632813 58.79882813 22.32421875 98.34960937 29.26757813 35.33203125 6.24023438 76.46484375 4.74609375 122.16796875-4.39453125 39.90234375-7.99804688 84.375-22.06054688 132.71484375-41.92382813-0.26367188 66.35742188 0.17578125 135.52734375 0.703125 202.76367188 0.52734375 74.00390625 1.0546875 150.46875 0.61523438 222.80273437z"  ></path></svg>