<svg width="150" height="150" id="icon-riqishijian" viewBox="0 0 1024 1024"><path d="M672.00000031 245.33333375V85.33333344h53.33333344v160.00000031h-53.33333344zM245.33333375 245.33333375V85.33333344h53.3333325v160.00000031H245.33333375zM85.33333344 351.99999969h799.99999969v53.33333344H85.33333344zM725.33333375 565.33333344h53.3333325v160.00000031h-53.3333325z"  ></path><path d="M85.33333344 192.00000031h53.33333344v639.99999938H85.33333344zM831.99999969 192.00000031h53.33333344v159.99999938h-53.33333344zM725.33333375 672.00000031h159.99999937v53.33333344h-159.99999937zM85.33333344 138.66666688h799.99999969v53.33333343H85.33333344z"  ></path><path d="M85.33333344 778.66666625h373.33333312v53.33333344H85.33333344zM245.33333375 458.66666656h106.66666594v106.66666688H245.33333375zM405.33333312 458.66666656h106.66666688v106.66666688H405.33333312zM245.33333375 618.66666688h106.66666594v106.66666687H245.33333375z"  ></path><path d="M752 938.66666656C618.66666688 938.66666656 512 831.99999969 512 698.66666656S618.66666688 458.66666656 752 458.66666656s240 106.66666688 240 240-106.66666688 240-240 240z m0-53.33333344c101.33333344 0 186.66666656-85.33333312 186.66666656-186.66666656S853.33333344 512 752 512 565.33333344 597.33333312 565.33333344 698.66666656s85.33333312 186.66666656 186.66666656 186.66666656z"  ></path></svg>