<svg width="150" height="150" id="icon-shanchu" viewBox="0 0 1024 1024"><path d="M917 212l-177 0 0-42c0-51-42-93-93-93l-276 0c-51 0-93 42-93 93l0 42-168 0c-12 0-24 9-24 24 0 12 9 24 24 24l57 0 0 0 0 594c0 51 42 93 93 93l516 0c51 0 93-42 93-93l0-591 0-3 48 0c12 0 24-9 24-24C938 224 932 212 917 212zM329 170c0-24 21-45 45-45l276 0c24 0 45 21 45 45l0 42-366 0L329 170zM821 845c0 27-15 54-39 54l-516 0c-24 0-51-18-51-42l3-597 603 0 0 0L821 845zM377 389c-15 0-24 9-24 24l0 321c0 15 12 24 24 24 12 0 24-9 24-24l0-321C398 401 392 389 377 389zM527 389c-15 0-24 9-24 24l0 321c0 15 12 24 24 24 12 0 24-9 24-24l0-321C548 401 542 389 527 389zM677 389c-15 0-24 9-24 24l0 321c0 15 12 24 24 24 12 0 24-9 24-24l0-321C698 401 692 389 677 389z"  ></path></svg>