<svg width="150" height="150" id="icon-sheji" viewBox="0 0 1024 1024"><path d="M864.2528 681.6887l-168.3189-169.065 162.198-162.9171c24.4899-24.5871 24.4899-63.0117 0-87.6042l-96.4044-96.831c-24.4773-24.5916-62.7327-24.5916-87.2226 0L512.3078 328.1885l-168.318-169.0704c-24.4899-24.5871-62.739-24.5871-87.2226 0L158.8328 257.4863c-24.4773 24.5925-24.4773 63.0171 0 87.6141l168.3243 169.065-139.2507 139.8573c-9.1755 9.2223-22.9536 69.1596-39.78 175.2129v1.5372c0 12.2958 4.5909 24.5871 12.2418 33.804 7.6446 9.2322 21.4173 13.8429 33.6591 12.3066h1.53c107.1216-16.9119 166.7943-30.7449 177.5061-41.499l139.2444-139.8618 168.3243 169.0605c24.4836 24.5916 62.739 24.5916 87.2163 0l97.9344-98.3628c22.9536-21.519 22.9536-61.4763-1.53-84.5316zM700.8731 194.4539c11.4192-11.4606 29.9646-11.4606 39.9501 0l91.3131 91.7199c11.4129 11.466 11.4129 30.0951 0 40.1274l-45.657 45.8523-131.2569-133.2711 45.6507-44.4285zM299.1437 428.4188l71.1216-71.4402c5.6817-5.715 5.6817-14.2866 0-20.0016-5.6943-5.715-14.2227-5.715-19.9233 0l-71.1162 71.4402-35.5608-35.7228 71.1216-71.4348c5.688-5.715 5.688-14.2866 0-19.9962-5.688-5.715-14.2227-5.715-19.9116 0l-71.1216 71.4348-29.8665-30.0078c-11.376-11.4246-11.376-28.5786 0-40.0032l91.0269-91.4364c11.3823-11.4345 28.4526-11.4345 39.8349 0L481.2155 348.407 350.342 479.852l-51.1983-51.4332zM192.5036 847.6802c-7.6572 0-13.7781-6.1479-13.7781-13.833 9.1818-58.4064 21.4227-126.0288 30.6045-152.1585l134.6598 135.2511c-26.0145 9.2223-91.8135 21.519-151.4862 30.7404z m182.7918-66.6999L243.1043 648.1844l373.5873-375.2766 132.1902 132.786-373.5864 375.2865z m452.7747-39.8385l-88.2351 88.6257c-11.0349 11.079-27.5742 11.079-38.6028 0l-38.6028-38.7756 68.9328-69.2325c5.517-5.5449 5.517-13.8537 0-19.3932-5.517-5.5395-13.7907-5.5395-19.3014 0l-68.9328 69.2424-42.7428-42.9327 68.9391-69.237c5.517-5.5395 5.517-13.8429 0-19.3824-5.517-5.5449-13.7907-5.5449-19.3077 0l-68.9328 69.237-30.33-30.4668L677.798 551.4254l151.65 152.3286c9.6507 9.6966 9.6507 26.3097-1.3779 37.3878z"  ></path></svg>