<svg width="150" height="150" id="icon-shezhi" viewBox="0 0 1024 1024"><path d="M917.45 549.93000031l-170.95999969 309.99999938a69.18 69.18 0 0 1-60.53000062 35.93000062h-339.49999969a69.18 69.18 0 0 1-60.52999969-35.93000062l-170.96000062-309.99999938a70.63000031 70.63000031 0 0 1 0-68.14000031l170.96000062-310.00000031a69.18 69.18 0 0 1 60.52999969-35.92999969h339.49999969a69.18 69.18 0 0 1 60.53000062 35.92999969l170.95999969 310.00000031a70.63000031 70.63000031 0 0 1 0 68.14000031z m-52.48999969-29.20000031a10.09999969 10.09999969 0 0 0 0-9.73000031l-170.66000062-309.99999938a9.85999969 9.85999969 0 0 0-8.62999969-5.14000031H346.74999969a9.85999969 9.85999969 0 0 0-8.62999969 5.14000031l-170.65999969 309.99999938a10.09999969 10.09999969 0 0 0 0 9.73000031l170.65999969 310.00000031a9.85999969 9.85999969 0 0 0 8.62999969 5.13h338.92000031a9.85999969 9.85999969 0 0 0 8.62999969-5.13l170.66000062-310.00000031zM513.63000031 672.00000031c-88.36999969 0-160.00000031-71.62999969-160.00000031-160.00000031s71.62999969-160.00000031 160.00000031-160.00000031c88.36000031 0 160.00000031 71.62999969 159.99999938 160.00000031s-71.64 160.00000031-159.99999938 160.00000031z m0-60c55.23 0 100.00000031-44.77000031 99.99999938-100.00000031s-44.77000031-100.00000031-99.99999938-100.00000031-100.00000031 44.77000031-100.00000031 100.00000031 44.77000031 100.00000031 100.00000031 100.00000031z"  ></path></svg>