<svg width="150" height="150" id="icon-shezhi2" viewBox="0 0 1024 1024"><path d="M644.056642 916.882354c-0.001023 0-0.001023 0-0.00307 0-15.803941-0.001023-31.162744-6.53688-41.084721-17.482163-13.517875-14.81952-56.346309-53.357232-91.402733-53.357232-34.8139 0-78.304414 38.759769-90.794889 52.338019-9.898441 10.760065-25.15082 17.183358-40.802288 17.183358-7.453762 0-14.488992-1.430582-20.910239-4.252861l-1.12359-0.493234-106.558921-59.586097-1.058099-0.73985c-19.399839-13.580297-26.78197-40.140209-17.171078-61.782112 0.072655-0.167822 9.827833-22.674419 9.827833-43.196825 0-62.282508-50.671053-112.954585-112.953561-112.954585l-3.776 0c-0.229221 0.005117-0.458441 0.008186-0.686638 0.008186-17.841344 0-32.367175-15.847943-37.007869-40.374546-0.37146-1.962701-9.094122-48.488341-9.094122-85.144192 0-36.654828 8.720615-83.181491 9.092076-85.144192 4.699022-24.839735 19.542078-40.796148 37.69553-40.367383l3.777023 0c62.283532 0 112.953561-50.671053 112.953561-112.954585 0-20.518313-9.750061-43.019793-9.849322-43.24492-9.599635-21.621437-2.169409-48.178279 17.310248-61.715597l1.104147-0.76748 112.459305-61.768809 1.169639-0.49835c6.332219-2.699482 13.268188-4.068665 20.615527-4.068665 15.613606 0 30.898731 6.284123 40.888246 16.810874 13.310144 13.93743 55.382355 50.181913 89.433892 50.181913 33.732266 0 75.546603-35.529191 88.811722-49.220005 9.93221-10.313903 25.107841-16.488533 40.569998-16.488533 7.495718 0 14.560624 1.418302 20.995173 4.214998l1.13894 0.49528 108.614743 60.344367 1.073448 0.74906c19.431561 13.5629 26.833135 40.122813 17.214057 61.781088-0.071631 0.165776-9.826809 22.673395-9.826809 43.194778 0 62.283532 50.671053 112.954585 112.953561 112.954585l3.776 0c18.129916-0.403183 32.995485 15.525602 37.69553 40.365336 0.370437 1.963725 9.093099 48.489364 9.093099 85.145216 0 36.655851-8.722662 83.181491-9.094122 85.144192-4.701069 24.840758-19.561521 40.73782-37.69553 40.36636l-3.774977 0c-62.282508 0-112.953561 50.672076-112.953561 112.954585 0 20.518313 9.749038 43.018769 9.848299 43.243897 9.594519 21.60711 2.181689 48.165999-17.269315 61.718667l-1.087774 0.75827-110.448508 61.045331-1.153266 0.497327C658.268318 915.501914 651.358955 916.882354 644.056642 916.882354zM640.702244 864.84621c0.493234 0.323365 1.886977 0.871857 3.353374 0.871857 0.060375 0 0.115634-0.001023 0.166799-0.00307l103.192244-57.034994c-2.489704-5.786797-13.882172-33.869389-13.882172-63.164598 0-87.60729 69.003584-159.402453 155.511843-163.896814 1.245364-6.873548 8.006348-45.547359 8.006348-74.568323 0-29.014824-6.757914-67.675332-8.005324-74.568323-86.508259-4.494361-155.512866-76.289524-155.512866-163.896814 0-29.335119 11.425214-57.45762 13.896498-63.197344l-101.517091-56.402591c-0.11768-0.008186-0.258896-0.014326-0.423649-0.014326-1.730411 0-3.348258 0.630357-3.88447 0.99056-1.702782 1.750877-16.419971 16.673751-37.556361 31.543414-31.28861 22.01234-60.875462 33.17354-87.940888 33.17354-27.329439 0-57.153698-11.381212-88.643899-33.827433-21.266349-15.158235-36.050054-30.365588-37.756929-32.148188-0.541329-0.369414-2.175549-1.01819-3.920286-1.01819-0.13917 0-0.25992 0.004093-0.363274 0.011256l-105.149828 57.754379c2.518357 5.859451 13.868869 33.892925 13.868869 63.132876 0 87.60729-69.00563 159.402453-155.51389 163.896814-1.246387 6.880711-8.004301 45.550429-8.004301 74.568323 0 29.014824 6.757914 67.675332 8.006348 74.568323 86.508259 4.494361 155.511843 76.289524 155.511843 163.896814 0 29.391401-11.469216 57.564044-13.911848 63.231113l99.519598 55.649438c0.065492 0.00307 0.13917 0.005117 0.220011 0.005117 1.455141 0 2.834558-0.533143 3.323699-0.849344 1.860371-1.99954 16.726963-17.73185 38.135552-33.423227 31.91385-23.388686 62.240553-35.248805 90.137926-35.248805 28.163433 0 58.72038 12.08627 90.821495 35.922141C623.920022 846.789972 638.84392 862.819041 640.702244 864.84621zM511.933485 656.906298c-82.945107 0-150.426011-67.480904-150.426011-150.426011 0-82.945107 67.480904-150.426011 150.426011-150.426011 82.945107 0 150.426011 67.480904 150.426011 150.426011C662.359496 589.42437 594.878592 656.906298 511.933485 656.906298zM511.933485 407.219585c-54.732555 0-99.260701 44.528146-99.260701 99.260701 0 54.732555 44.528146 99.260701 99.260701 99.260701 54.732555 0 99.260701-44.528146 99.260701-99.260701C611.194186 451.747731 566.667064 407.219585 511.933485 407.219585z"  ></path></svg>