<svg width="150" height="150" id="icon-shezhi2" viewBox="0 0 1024 1024"><path d="M905.96338745 412.55225001l-65.3180625 38.02781249c3.6635625 19.9715625 6.0665625 40.3734375 6.0665625 61.425 0 21.0481875-2.403 41.4500625-6.064875 61.41825l65.3180625 38.02443751c26.6810625 15.53175001 35.8239375 49.9365 20.41875 76.83862499l-55.7836875 97.4295c-15.4035 26.9004375-49.5230625 36.1175625-76.2058125 20.5891875l-65.988-38.41931249c-30.8323125 26.4650625-65.88 48.09375001-104.83425 61.99874999l0 47.739375c0 31.066875-24.9766875 56.251125-55.785375 56.251125l-111.57075 0c-30.8086875 0-55.785375-25.1859375-55.785375-56.251125l0-47.739375c-38.95425001-13.9066875-74.0019375-35.535375-104.83425-61.99874999l-65.988 38.41931249c-26.68274999 15.5300625-60.800625 6.3129375-76.2024375-20.5891875L97.61544995 688.2846875c-15.4035-26.9004375-6.2623125-61.3051875 20.41875-76.838625l65.3180625-38.0244375c-3.661875-19.9665-6.064875-40.3700625-6.064875-61.41825 0-21.0515625 2.403-41.4534375 6.064875-61.4266875l-65.3180625-38.02443749c-26.6810625-15.53175001-35.82225001-49.9365-20.41875-76.83862501L153.40419995 238.2875c15.4018125-26.9055 49.5196875-36.126 76.2024375-20.590875l65.9896875 38.4159375c30.8323125-26.46675001 65.88-48.09375001 104.8325625-61.99875L400.42888745 146.3778125C400.42888745 115.3109375 425.40557495 90.125 456.21426245 90.125l111.57075 0c30.8086875 0 55.785375 25.1859375 55.785375 56.2528125l0 47.736c38.9525625 13.9066875 74.00024999 35.532 104.8325625 61.99875l65.9896875-38.4159375c26.68274999-15.535125 60.8023125-6.314625 76.2058125 20.590875l55.7836875 97.426125C941.78732495 362.6140625 932.64444995 397.0205 905.96338745 412.55225001zM864.12688745 339.4835l-27.8926875-48.7164375c-7.70174999-13.449375-24.762375-18.0613125-38.1020625-10.297125l-77.4984375 45.120375c-39.3373125-44.742375-92.4969375-76.838625-152.847-89.1945L567.78669995 174.496625c0-15.53175001-12.4875-28.1188125-27.8926875-28.1188125l-55.7870625 0c-15.4051875 0-27.8926875 12.5870625-27.8926875 28.1188125l0 61.8991875c-60.3500625 12.355875-113.5096875 44.452125-152.847 89.1945l-77.4984375-45.120375c-13.3396875-7.7641875-30.398625-3.15224999-38.1020625 10.297125l-27.8926875 48.7164375c-7.70174999 13.449375-3.1303125 30.6534375 10.209375 38.4193125l77.8089375 45.295875c-9.2694375 27.9804375-14.819625 57.675375-14.819625 88.806375 0 31.12424999 5.5485 60.8191875 14.8179375 88.7979375l-77.8089375 45.29924999c-13.3396875 7.7675625-17.911125 24.96825001-10.209375 38.41931251l27.8926875 48.711375c7.7034375 13.456125 24.762375 18.0646875 38.1020625 10.29375l77.4950625-45.117c39.339 44.742375 92.498625 76.838625 152.850375 89.191125l0 61.90425c0 15.5300625 12.4875 28.1188125 27.8926875 28.1188125l55.7870625 0c15.4051875 0 27.8926875-12.5904375 27.8926875-28.1188125l0-61.90425c60.35175001-12.3541875 113.511375-44.4504375 152.8486875-89.191125l77.49675 45.117c13.3396875 7.76925001 30.4003125 3.162375 38.1020625-10.29375l27.8926875-48.711375c7.70174999-13.4510625 3.1303125-30.65175001-10.209375-38.41931249l-77.8089375-45.29925001c9.2694375-27.9770625 14.8179375-57.6736875 14.8179375-88.7979375 0-31.1293125-5.5485-60.8225625-14.8179375-88.803l77.8089375-45.2975625C867.25719995 370.1369375 871.82694995 352.932875 864.12688745 339.4835zM512.00132495 652.6210625c-77.02424999 0-139.4634375-62.9589375-139.4634375-140.6176875 0-77.6671875 62.4391875-140.6311875 139.4634375-140.6311875 77.0225625 0 139.4634375 62.964 139.4634375 140.6311875C651.46307495 589.6638125 589.02388745 652.6210625 512.00132495 652.6210625zM512.00132495 427.6266875c-46.2155625 0-83.6780625 37.7746875-83.6780625 84.3766875 0 46.59525001 37.4641875 84.3665625 83.6780625 84.3665625 46.2121875 0 83.676375-37.769625 83.676375-84.3665625C595.67769995 465.401375 558.21351245 427.6266875 512.00132495 427.6266875z"  ></path></svg>