<svg width="150" height="150" id="icon-sousuo2" viewBox="0 0 1024 1024"><path d="M492.88533333 891.56266667c-223.36853333 0-404.6848-181.31626667-404.6848-404.6848s181.8624-405.23093333 404.6848-405.23093334 405.23093333 181.8624 405.23093334 404.6848-181.8624 405.23093333-405.23093334 405.23093334z m0-743.8336c-186.7776 0-338.60266667 151.82506667-338.60266666 338.60266666s151.82506667 338.60266667 338.60266666 338.60266667 338.60266667-151.82506667 338.60266667-338.60266667-151.82506667-338.60266667-338.60266667-338.60266666z"  ></path><path d="M447.01013333 665.46346667c-103.76533333 0-187.32373333-84.10453333-187.32373333-187.32373334 0-19.6608 15.83786667-35.49866667 35.49866667-35.49866666s35.49866667 15.83786667 35.49866666 35.49866666c0 63.8976 52.4288 116.3264 116.3264 116.3264 19.6608 0 35.49866667 15.83786667 35.49866667 35.49866667 0 19.11466667-15.83786667 35.49866667-35.49866667 35.49866667zM900.84693333 942.35306667c-8.73813333 0-17.47626667-3.2768-24.576-9.8304l-137.07946666-134.3488c-14.19946667-14.19946667-14.7456-37.13706667-1.6384-51.88266667 13.65333333-14.7456 35.49866667-15.29173333 49.69813333-1.6384l137.07946667 134.3488c14.19946667 14.19946667 14.7456 37.13706667 1.6384 51.88266667-6.5536 8.192-16.384 11.4688-25.12213334 11.4688z"  ></path></svg>