<svg width="150" height="150" id="icon-wendang" viewBox="0 0 1024 1024"><path d="M849.5 765.125h-28.125v-56.25h28.125a28.125 28.125 0 0 0 28.125-28.125V174.5a28.125 28.125 0 0 0-28.125-28.125H343.25a28.125 28.125 0 0 0-28.125 28.125v28.125H258.875V174.5a84.375 84.375 0 0 1 84.375-84.375h506.25a84.375 84.375 0 0 1 84.375 84.375v506.25a84.375 84.375 0 0 1-84.375 84.375z m-84.375-421.875v506.25a84.375 84.375 0 0 1-84.375 84.375H174.5a84.375 84.375 0 0 1-84.375-84.375V343.25a84.375 84.375 0 0 1 84.375-84.375h506.25a84.375 84.375 0 0 1 84.375 84.375zM146.375 343.25v506.25a28.125 28.125 0 0 0 28.125 28.125h506.25a28.125 28.125 0 0 0 28.125-28.125V343.25a28.125 28.125 0 0 0-28.125-28.125H174.5a28.125 28.125 0 0 0-28.125 28.125z m112.5 309.375h337.5v56.25H258.875v-56.25z m0-168.75h337.5v56.25H258.875v-56.25z"  ></path></svg>