<svg width="150" height="150" id="icon-xiayu" viewBox="0 0 1024 1024"><path d="M339.528869 782.221903l-0.019176 0.038352c0 0-58.043925 61.043056-63.23967 110.276554-0.03164 0.29627-0.053693 0.595416-0.081498 0.893603-0.066157 0.71239-0.121768 1.422861-0.164914 2.129498-0.018217 0.309693-0.037393 0.619386-0.051775 0.930037-0.046022 0.996195-0.077663 1.989513-0.076704 2.973243 0 36.080659 29.710382 65.329858 66.35961 65.329858 36.649228 0 66.35961-29.249199 66.35961-65.329858 0-2.560959-0.165873-5.082607-0.457348-7.565903C407.151221 875.269753 398.266007 832.938667 339.528869 782.221903z"  ></path><path d="M613.052884 780.3043l-0.019176 0.036434c0 0-58.286502 57.556854-63.503341 103.978187-0.03164 0.27997-0.054652 0.561858-0.082457 0.842787-0.066157 0.67212-0.121768 1.341363-0.164914 2.00773-0.018217 0.292434-0.037393 0.58391-0.051775 0.877303-0.046981 0.939625-0.078622 1.875416-0.076704 2.803536 0 34.020195 29.834067 61.599161 66.636704 61.599161s66.636704-27.578966 66.636704-61.599161c0-2.414262-0.166831-4.79209-0.459266-7.134442C680.958082 868.037513 672.035476 828.124524 613.052884 780.3043z"  ></path><path d="M758.751401 207.098247c-49.386906-92.019056-146.504869-154.60003-258.250307-154.60003-120.532854 0-224.045064 72.811386-268.995596 176.842307C131.309783 250.55209 56.116734 339.492434 56.116734 446.006652c0 122.321978 99.161169 221.483146 221.483146 221.483146 2.815041 0 5.616659-0.059446 8.406772-0.163955l58.042966 0 0 22.691955 0.012464 0c-0.000959 0.16012-0.012464 0.318322-0.012464 0.479401 0 33.0077 26.758232 59.764974 59.764974 59.764974 33.0077 0 59.764974-26.758232 59.764974-59.764974 0-0.161079-0.010547-0.319281-0.012464-0.479401l0.012464 0L463.579566 667.325843l136.395266 0c-0.258876 2.25606-0.405573 4.545678-0.405573 6.87173 0 33.0077 26.758232 59.764974 59.764974 59.764974 33.0077 0 59.764974-26.758232 59.764974-59.764974 0-2.325094-0.146697-4.61567-0.405573-6.87173l35.886981 0 0-0.301064c124.641318-2.807371 224.819775-104.718382 224.819775-230.033738C979.403266 313.075536 881.449228 212.05621 758.751401 207.098247zM754.583491 599.825258c0 0-16.810667 0.390232-21.037064-0.094921L277.206772 599.730337c-0.089169 0-0.177378 0.003835-0.266547 0.003835-0.098757 0-0.196554-0.003835-0.29627-0.003835l-1.308764 0 0-0.0163c-83.631461-0.861963-151.163685-68.912899-151.163685-152.748584 0-84.371655 68.397064-152.768719 152.768719-152.768719 0.931955 0 1.859116 0.018217 2.786277 0.035476 5.589813-24.286442 15.081948-47.078112 27.772644-67.691386-0.038352-0.004794-0.076704-0.011506-0.115056-0.017258 13.172015-21.349633 29.785169-40.350202 49.064749-56.229873 0.116015-0.09588 0.233948-0.188884 0.349963-0.284764 1.022082-0.838951 2.052794-1.667356 3.089258-2.48809 0.529258-0.419955 1.058517-0.838951 1.590652-1.254112 0.465978-0.362427 0.936749-0.719101 1.404644-1.077693 38.234127-29.328779 86.06394-46.773213 137.975371-46.773213 101.522697 0 187.464869 66.674097 216.449438 158.620285 11.29564-2.46412 23.022742-3.773843 35.056659-3.773843 11.265918 0 22.265288 1.139056 32.890727 3.304989-0.001918-0.00767-0.003835-0.015341-0.004794-0.022052 3.933963 0.806352 7.813273 1.763236 11.638891 2.845723 0.245453 0.069034 0.489948 0.139985 0.734442 0.209978 0.895521 0.257918 1.787206 0.523506 2.676974 0.795805 0.465978 0.141903 0.930996 0.285723 1.395056 0.432419 0.609798 0.192719 1.21576 0.39215 1.822682 0.591581 0.680749 0.223401 1.360539 0.44776 2.037453 0.67979 0.228195 0.078622 0.454472 0.161079 0.681708 0.2397 63.982742 22.27967 109.902622 83.121378 109.902622 154.696869C916.141543 526.746367 844.010906 598.637303 754.583491 599.825258z"  ></path></svg>