<svg width="150" height="150" id="icon-xitong" viewBox="0 0 1024 1024"><path d="M461.63867162 854.76025415a294.62695338 294.62695338 0 0 0 103.20117213 51.54785107c2.09619141 0.56689478 10.30957006 0.94921875 22.46484375 1.18652343h-312.58300807a26.38037109 26.38037109 0 0 1 0-52.73437448H461.63867162z m245.87402395-440.34521534l2.41259765 0.54052785a237.92431615 237.92431615 0 0 1 95.23828125 51.6665034l4.71972606 4.324219a25.57617162 25.57617162 0 0 1 7.98925781 21.48925807l-4.95703073 44.24414037a6.20947266 6.20947266 0 0 0 3.82324192 6.40722656l42.05566432 17.96923854a26.36718725 26.36718725 0 0 1 14.56787058 15.37207006l0.6328125 2.08300756a222.40722682 222.40722682 0 0 1 1.50292969 105.66650441l-1.50292969 6.13037109c-2.01708985 7.77832006-7.63330078 14.23828125-15.21386692 17.46826147l-42.05566432 17.96923853a6.20947266 6.20947266 0 0 0-3.81005808 6.40722656l4.95703073 44.2045896a25.51025391 25.51025391 0 0 1-6.4335935 19.90722681l-1.54248047 1.58203125a237.39697291 237.39697291 0 0 1-93.73535156 54.17138647l-6.23583959 1.80615209c-1.58203125 0.42187475-3.20361328 0.71191406-4.83837916 0.84375025l-2.46533228 0.1054685c-5.70849635 0-11.27197266-1.76660131-15.88623022-5.02294922l-37.08544896-26.31445262a6.61816432 6.61816432 0 0 0-7.63330078 0l-37.08544973 26.31445262a27.55371068 27.55371068 0 0 1-20.79052709 4.58789062l-2.39941381-0.55371093a237.9375 237.9375 0 0 1-95.23828125-51.65332032l-4.74609375-4.33740209a25.57617162 25.57617162 0 0 1-7.97607472-21.47607422l4.97021535-44.20458959a6.2226565 6.2226565 0 0 0-3.8232427-6.40722656l-42.05566355-17.96923853a26.36718725 26.36718725 0 0 1-14.56787135-15.37207006l-0.64599635-2.09619141a222.40722682 222.40722682 0 0 1-1.48974584-105.66650441l1.48974584-6.1303711c2.03027369-7.77832006 7.64648463-14.21191431 15.22705078-17.45507761l42.02929738-17.96923853a6.2226565 6.2226565 0 0 0 3.82324194-6.40722656l-4.9570315-44.2045896a25.51025391 25.51025391 0 0 1 6.43359425-19.90722682l1.54248047-1.58203125a237.42333984 237.42333984 0 0 1 93.73535156-54.18457031l6.23583959-1.80615209a27.58007838 27.58007838 0 0 1 23.18994166 4.06054662l37.08544897 26.30126953a6.61816432 6.61816432 0 0 0 7.64648463 0l37.08544896-26.30126953a27.5141599 27.5141599 0 0 1 18.36474635-4.93066381l2.41259766 0.32958934zM775.67187475 116.4921875C848.41894531 116.4921875 907.5078125 171.6523435 907.5078125 239.49511719v309.37939478a4.02099584 4.02099584 0 0 0-0.76464869-1.23925806l-0.42187475-0.30322241-51.56103489-21.91113281v-52.28613281l1.1337888-9.94042994a30.82324244 30.82324244 0 0 0-1.10742188-12.31347683l-0.02636692-211.37255808C854.77343725 200.7617185 819.30957031 169.22656275 775.67187475 169.22656275H248.32812525c-43.65087865 0-79.1015625 31.50878881-79.1015625 70.26855444v439.48828125c0 38.74658178 35.45068385 70.26855443 79.1015625 70.26855443h184.89990234c2.75537084 1.18652345 4.54833984 3.75732422 4.69335913 6.59179738l-0.03955078 1.23925731-5.07568385 44.90332056H248.34130834C175.69970703 802.01269506 116.4921875 746.86572291 116.4921875 679.00976537V239.50830103C116.4921875 171.6523435 175.68652318 116.4921875 248.34130834 116.4921875H775.67187475z m-68.21191381 352.38427709l-26.03759791 18.45703176a61.56738256 61.56738256 0 0 1-71.15185547 0l-26.050781-18.45703176a183.68701197 183.68701197 0 0 0-55.50292994 31.11328176l3.4936526 31.02099558c2.91357397 25.29931615-11.50927734 49.49121119-35.58251928 59.7084966l-29.50488281 12.60351538a172.25683619 172.25683619 0 0 0 0 62.09472656l29.50488281 12.61669922c24.07324193 10.21728541 38.49609401 34.40917969 35.59570313 59.70849584l-3.52001954 31.03418019a183.63427734 183.63427734 0 0 0 55.50292919 31.11328099l26.03759791-18.48339868a61.33007787 61.33007787 0 0 1 32.11523437-11.21923803l3.48046875-0.09228541a61.43554713 61.43554713 0 0 1 35.59570313 11.31152344l26.02441406 18.45703175a183.54199193 183.54199193 0 0 0 55.50292994-31.1000979l-3.48046875-31.03417944c-2.90039088-25.29931615 11.50927734-49.49121119 35.56933543-59.69531275l29.51806666-12.57714844a172.25683619 172.25683619 0 0 0 0-62.10791041l-29.51806666-12.62988231c-24.06005885-10.21728541-38.48291017-34.40917969-35.56933543-59.72167968l3.48046875-31.0078125a183.55517578 183.55517578 0 0 0-55.50292994-31.11328176z m-61.62011719 58.40332082c60.94775391 0 110.51806666 48.02783228 110.51806666 107.06396484 0 59.04931641-49.57031275 107.07714869-110.51806666 107.07714793-60.93457006 0-110.50488281-48.02783228-110.50488281-107.07714793 0-59.03613257 49.57031275-107.06396484 110.50488281-107.06396484z m0 52.07519506c-31.3374026 0-56.74218725 24.62695287-56.74218725 54.98876978 0 30.375 25.40478541 54.98876978 56.74218725 54.98876902 30.40136693 0 55.21289063-23.15039088 56.68945338-52.23339818l0.06591771-2.74218775c-0.03955078-29.4389651-23.90185572-53.45947241-53.92089869-54.92285131l-2.8344724-0.06591771z"  ></path></svg>