<svg width="150" height="150" id="icon-yewan" viewBox="0 0 1024 1024"><path d="M536.15608415 122.86179555c-10.53754194-30.6287751 18.77080534-59.93712238 49.37369008-49.39958044a399.75341868 399.75341868 0 0 1 152.70373452 95.64048711c156.71680356 156.71680356 156.71680356 410.80877511 0 567.52557867-156.71680356 156.71680356-410.80877511 156.71680356-567.52557867 0a399.83109098 399.83109098 0 0 1-95.61459675-152.67784416c-10.5634323-30.60288475 18.77080534-59.93712238 49.37369008-49.37368887a323.63456831 323.63456831 0 0 0 334.58636088-77.1544818A323.63456831 323.63456831 0 0 0 536.15608415 122.86179555z m92.4300326 57.11502814l0.46603377 3.72827023c12.68647466 112.75428386-22.78387317 227.60571851-101.44001897 314.31389275l-7.27530549 7.81901156-6.36912829 6.52447288a401.02206578 401.02206578 0 0 1-318.43052324 116.0941914l-10.20096239-1.03563021-3.72827022-0.44014341 3.88361481 5.95487644c7.76722963 11.57317215 16.31118222 22.68031052 25.63185778 33.26963318l7.09407054 7.84490193 7.4047585 7.66366697c126.39871644 126.37282608 331.29823406 126.37282608 457.69695172 0 126.37282608-126.39871644 126.37282608-331.32412564 0-457.69695172-12.06509629-12.06509629-24.93280711-23.04278164-38.47367825-32.93305363l-10.27863347-7.19763198-5.95487645-3.90950639z m-225.24965927 175.25459202a38.83614815 38.83614815 0 0 1-33.01072593 40.4413748l-3.72827022 0.36247112-75.70459852 3.96128712a38.83614815 38.83614815 0 0 1-7.76722964-77.18037216l3.70237986-0.38836149 75.70459853-3.96128711a38.83614815 38.83614815 0 0 1 40.82973628 36.76488772z m-30.11096059-182.16742639l3.10689184 2.51140506 56.31241482 50.72000948a38.83614815 38.83614815 0 0 1-48.88176473 60.22191999l-3.0810015-2.51140384-56.33830517-50.72000948a38.83614815 38.83614815 0 0 1 48.88176474-60.22192121z"  ></path></svg>