<svg width="150" height="150" id="icon-yibiaopan" viewBox="0 0 1024 1024"><path d="M512 100.86363613A420.34090924 420.34090924 0 0 0 164.72017038 757.26278425a28.95596575 28.95596575 0 0 0 23.77840924 12.46448885 27.99715924 27.99715924 0 0 0 16.68323886-4.9857962 28.57244348 28.57244348 0 0 0 7.67045462-39.88636303 361.66193152 361.66193152 0 0 1-61.9389212-188.30965925h46.7897731a31.06534076 31.06534076 0 0 0 0-61.93892037H153.0227269A360.89488613 360.89488613 0 0 1 224.35795462 301.0625l26.84659076 26.84659075a31.06534076 31.06534076 0 0 0 43.91335272-43.72159075L266.54545462 255.23153424a361.85369348 361.85369348 0 0 1 216.8821019-95.88068234 28.38068152 28.38068152 0 0 0-1.7258519 9.77982962v48.8991481a31.06534076 31.06534076 0 0 0 61.93892038 0V169.51420462a33.75 33.75 0 0 0-1.7258519-9.77982962A360.89488613 360.89488613 0 0 1 757.45454538 254.2727269l-29.91477228 29.9147731a31.06534076 31.06534076 0 0 0 43.9133519 43.72159076L799.64204538 299.91193152a359.74431848 359.74431848 0 0 1 72.67755652 174.69460273h-46.0227269a31.06534076 31.06534076 0 0 0 0 61.93892037h48.515625a360.3196019 360.3196019 0 0 1-59.82954538 185.2414769 28.76420462 28.76420462 0 0 0 47.94034076 31.83238696A420.53267038 420.53267038 0 0 0 512 100.86363613z"  ></path><path d="M591.7727269 400.97017038L500.49431848 492.82386387a42.37926113 42.37926113 0 0 0-7.09517038 0 51.39204538 51.39204538 0 1 0 51.39204538 51.20028423 38.3522731 38.3522731 0 0 0 0-6.51988697l91.47017039-91.47017037a30.87357962 30.87357962 0 0 0-43.72159077-43.72159076z"  ></path></svg>