<svg width="150" height="150" id="icon-yibiaopan2" viewBox="0 0 1024 1024"><path d="M747.828125 331.59570312C815.64453125 391.9765625 858.06933594 478.11816406 858.06933594 573.72558594c0 66.52441406-20.54003906 128.4609375-55.8984375 180.3515625l0.52734375 0.29003906a23.44042969 23.44042969 0 0 0 0.13183594 23.57226562c6.72363281 11.20605469 21.64746094 14.58105469 33.35449218 7.54101563a25.65527344 25.65527344 0 0 0 6.85546875-6.01171875l0.60644532 0.36914062A364.57910156 364.57910156 0 0 0 907.5078125 573.72558594c0-109.265625-48.46289063-207.69433594-125.98242188-276.72363281l-33.69726562 34.59375z m-134.18261719-74.22363281a360.703125 360.703125 0 0 0-101.64550781-14.50195312c-191.13574219 0-346.06933594 148.13085938-346.06933594 330.85546875a318.17285156 318.17285156 0 0 0 52.36523438 175.078125 22.75488281 22.75488281 0 0 1 2.7421875 3.69140625c6.72363281 11.1796875 2.68945313 25.9453125-9.01757813 32.95898437-11.70703125 7.06640625-26.63085938 3.69140625-33.35449219-7.51464843a22.83398438 22.83398438 0 0 1-1.39746093-2.68945313A363.65625 363.65625 0 0 1 116.4921875 573.72558594C116.4921875 364.89746094 293.57421875 195.59375 512 195.59375c40.42089844 0 79.44433594 5.80078125 116.17382813 16.58496094l-14.50195313 45.19335937zM464.27539062 652.98535156c-50.67773438-29.26757813-30.50683594-64.07226563 5.35253907-110.39941406C505.51367187 496.25878906 762.48828125 155.35742187 762.48828125 155.35742187S598.14160156 516.48242188 559.61914063 588.9921875c-38.54882813 72.50976563-44.05957031 93.57714844-95.37011719 63.96679688z"  ></path></svg>