<svg width="150" height="150" id="icon-yinzhang" viewBox="0 0 1024 1024"><path d="M875.5 928h-727c-28.4 0-51.5-23-51.5-51.5h830c0 28.5-23.1 51.5-51.5 51.5z m50.9-70.5H97.6V709.3c0-25 9.9-47 28.7-63.6 13.7-12.2 32.4-21.7 57-29.2l1-0.3L317 585.5c52.7-16.3 59.8-36.1 59.8-53.3v-88.8c0-5.5-2.2-10.5-6.2-14.3-23.8-22.2-42.3-49.9-53.5-80.1-11.9-32.2-15.6-66.1-10.9-100.8 6.1-45 27.7-87.5 60.8-119.8 33-32.3 76.1-52.9 121.1-57.9 30.4-3.4 60.3-0.4 88.9 8.9 27.4 9 52.2 23.3 73.8 42.6 44.1 39.4 69.4 95.9 69.4 155 0 28.7-5.8 56.6-17.2 82.7-11 25.2-26.7 47.7-46.6 66.9-5.7 5.5-8.8 12.5-8.8 19.7v85.8c0 16.4 4.7 35.5 60 53.3l133.1 30.8 1.5 0.5c19.3 6.7 41.2 15.6 57.5 30.1 18 16.1 27.1 37.1 27 62.4v148.3z m-770.8-58h712.8v-90.3c0-13.4-2.9-22.7-44.1-37.2L692 641.4l-1.1-0.4c-30.8-9.8-52.7-21.1-68.8-35.4-21.7-19.3-32.7-44-32.7-73.5v-85.8c0-23.1 9.4-45 26.6-61.5 29.7-28.5 46-66.8 46-107.8 0-42.6-18.2-83.4-50-111.8-32.3-28.8-74-42-117.5-37.1-66.8 7.5-121.8 61.3-130.9 127.9-6.7 49.3 10.2 96.9 46.4 130.6 15.7 14.6 24.7 35.3 24.7 56.7v88.8c0 29.5-11.2 54.4-33.4 74-16.4 14.5-38.7 26-68.4 35l-1 0.3-1 0.2-131.7 30.5c-43.6 13.5-43.6 29.4-43.6 37.1v90.3z"  ></path></svg>