<svg width="150" height="150" id="icon-zhishi" viewBox="0 0 1024 1024"><path d="M512 606.95c-7.2 0-14.4-1.8-21.15-5.85L88.55 368c-13.05-7.65-21.15-22.05-21.15-36.9s8.55-29.25 22.05-36.45l371.25-199.8c31.5-17.1 69.3-17.1 101.25 0l371.7 199.8c13.5 7.2 22.05 21.15 22.05 36.45 0.45 15.3-7.65 29.25-21.15 36.9l-402.3 233.1c-5.4 4.05-13.05 5.85-20.25 5.85z m0-484.2c-10.8 0-21.6 2.7-31.5 8.1l-371.7 199.8v2.7l402.3 233.1 403.65-233.1v-2.7L543.5 130.85c-9.9-5.4-20.7-8.1-31.5-8.1z" fill="" ></path><path d="M512 785.15c-7.2 0-14.4-1.8-21.15-5.85l-403.65-233.55c-13.05-7.65-21.15-21.15-21.15-36.45 0-15.3 7.65-28.8 21.15-36.45l78.75-45.9c9.45-5.4 22.05-2.25 27.45 7.2 5.4 9.45 2.25 22.05-7.2 27.45L107.45 507.5v2.7l403.65 233.55 405-233.55 10.35-20.25-10.35 17.55-78.75-45.9c-9.45-5.4-13.05-18-7.2-27.45 5.85-9.45 18-13.05 27.45-7.2l78.75 45.9c13.05 7.65 21.15 21.15 21.15 36.45 0 15.3-7.65 28.8-21.15 36.45l-403.65 233.55c-5.85 4.05-13.5 5.85-20.7 5.85z" fill="" ></path><path d="M512 941.75c-7.2 0-14.4-1.8-21.15-5.85l-403.2-233.55c-13.05-7.65-21.15-21.15-21.15-36.45s7.65-28.8 21.15-36.45l78.75-45.9c9.45-5.4 22.05-2.25 27.45 7.2s2.25 22.05-7.2 27.9l-78.75 45.9-10.35 20.25 10.35-17.55 403.65 233.55 405-233.55 10.35-20.25-10.35 17.55-78.75-45.9c-9.45-5.85-13.05-18-7.2-27.9 5.85-9.45 18-13.05 27.45-7.2l78.75 45.9c13.05 7.65 21.15 21.15 21.15 36.45 0 15.3-7.65 28.8-21.15 36.45l-403.65 233.55c-6.3 4.05-13.95 5.85-21.15 5.85z" fill="" ></path></svg>