<svg t="1677915075873" class="icon" viewBox="0 0 1024 1024" version="1.1" xmlns="http://www.w3.org/2000/svg" p-id="9247" width="150" height="150"><path d="M157.4 719.23m-81 0a81 81 0 1 0 162 0 81 81 0 1 0-162 0Z" fill="#FFAFAF" p-id="9248"></path><path d="M814.4 440.23m-81 0a81 81 0 1 0 162 0 81 81 0 1 0-162 0Z" fill="#FFAFAF" p-id="9249"></path><path d="M696.05 711.58m-196.65 0a196.65 196.65 0 1 0 393.3 0 196.65 196.65 0 1 0-393.3 0Z" fill="#FFAFAF" p-id="9250"></path><path d="M354.5 349.33m-269.1 0a269.1 269.1 0 1 0 538.2 0 269.1 269.1 0 1 0-538.2 0Z" fill="#FFAFAF" p-id="9251"></path><path d="M641.48 485.79H372c-2.07 0-4.12-0.22-6.19-0.38-4.28-0.33 3.91 0.71 1.11 0.14-1-0.2-2-0.35-3-0.56-2-0.41-3.91-0.91-5.83-1.49-1.14-0.34-2.28-0.71-3.4-1.12-1.87-0.66-3.68-2.33 0.38 0.28-3.44-2.2-7.41-3.61-10.87-5.89-0.82-0.54-1.61-1.12-2.42-1.66-3.53-2.38 3.56 3.08 0.36 0.28-1.77-1.54-3.54-3.06-5.2-4.72a81.668 81.668 0 0 1-4-4.3 14.75 14.75 0 0 0-1.49-1.81c3.55 2.85 1.59 2.1 0.35 0.31a83.81 83.81 0 0 1-6.4-11.25c-1.89-3.87 1.57 4.51 0.21 0.42-0.26-0.75-0.55-1.49-0.81-2.24-0.7-2.09-1.31-4.2-1.81-6.34-0.24-1-0.45-2-0.64-3-0.41-2.09 0.31-4.48 0 0.53 0.17-2.38-0.47-5-0.52-7.41V285.9c0-2 0-4 0.1-6 0.06-1 0.13-2.06 0.23-3.09 0.24-2.44 1.43-2.42-0.18 1.1 0.76-1.65 0.75-4.13 1.19-5.94 0.53-2.14 1.16-4.24 1.88-6.32a13.9 13.9 0 0 0 1-2.79q-1.94 4.45-0.64 1.53c0.24-0.54 0.49-1.07 0.75-1.6a86.61 86.61 0 0 1 6.33-10.61c1.83-2.72-0.74 1.05-1 1.27a19.62 19.62 0 0 0 2.26-2.69c1.54-1.76 3.17-3.45 4.88-5.05 1.34-1.25 3.27-2.43 4.43-3.83-3 3.6-2 1.55-0.31 0.35 0.64-0.45 1.29-0.89 2-1.31q2.47-1.6 5.07-3c1-0.56 2.09-1.1 3.16-1.6 0.71-0.34 1.43-0.67 2.15-1l-2.61 1.12c1.79 0 4.43-1.61 6.21-2.13q3.18-0.93 6.44-1.56c0.79-0.15 1.63-0.23 2.4-0.42-5.59 1.42-2.15 0.27-0.48 0.12 2.07-0.17 4.14-0.25 6.22-0.27H642.73c2.07 0 4.12 0.23 6.19 0.38 4.44 0.33-4.84-1-0.51 0 1 0.21 2 0.37 3 0.59q3.23 0.71 6.38 1.71c0.76 0.24 1.51 0.5 2.26 0.77s1.49 0.54 2.23 0.84q-4.46-1.93-1.53-0.64a84 84 0 0 1 10.25 5.69c0.81 0.54 1.57 1.18 2.4 1.68 2.32 1.39-3.89-3.3-0.83-0.63 1.77 1.54 3.54 3.06 5.2 4.72 1.38 1.38 2.71 2.81 4 4.3 1.57 1.85 1.28 3.46-0.23-0.41a13.23 13.23 0 0 0 1.37 1.91c2.69 3.87 4.24 8.54 6.88 12.33-0.22-0.32-1.74-4.64-0.69-1.5 0.38 1.13 0.82 2.24 1.18 3.38q0.91 2.86 1.58 5.79c0.23 1 0.43 2 0.61 3 0.36 2-0.34 3.57-0.07-1.13-0.14 2.38 0.47 5 0.52 7.41 0.07 4.11 0 8.23 0 12.34v129.8c0 4.53 0.14 9.1-0.1 13.62-0.07 1.24-0.2 2.47-0.29 3.7-0.33 4.28 0.71-3.91 0.14-1.11-0.44 2.18-0.82 4.36-1.39 6.51-0.51 1.93-1.11 3.84-1.78 5.72-0.2 0.58-1.84 4.07-0.28 0.92 1.64-3.31-0.64 1.32-0.93 1.91a88.78 88.78 0 0 1-6.07 10.07c-2.37 3.53 3.09-3.56 0.29-0.36-0.51 0.59-1 1.2-1.52 1.79q-2.31 2.64-4.88 5c-0.85 0.8-1.73 1.58-2.62 2.34-0.41 0.35-3.47 2.85-0.7 0.63s-0.34 0.2-0.8 0.51c-1 0.67-1.94 1.32-2.94 1.94-1.67 1-3.37 2-5.12 2.92-0.7 0.36-1.41 0.71-2.12 1l-1.07 0.5q-2.93 1.29 1.53-0.63c-1.67 0.12-4 1.46-5.63 1.95-1.92 0.58-3.87 1.08-5.83 1.49a19.13 19.13 0 0 0-3.59 0.66c3-1.37 3.81-0.4 1.71-0.24-2.49 0.19-4.95 0.37-7.44 0.39-10.53 0.09-20.62 9.19-20.13 20.13s8.85 20.22 20.13 20.12c42.37-0.37 82-31.07 89.79-73.45 3.1-16.86 1.89-34.56 1.89-51.63 0-39.12 0.31-78.25 0-117.37-0.33-42.2-30.78-81.57-72.85-89.68-13-2.5-26-2-39.2-2H374.98c-33.09 0-64.28 17-81 45.82a93.56 93.56 0 0 0-12.35 46.69V431.14c0 11.36 1.23 22.9 5.26 33.6 7.63 20.27 21.28 37.55 40.05 48.65A93.2 93.2 0 0 0 373.76 526h267.72c10.53 0 20.61-9.25 20.12-20.12s-8.84-20.09-20.12-20.09z" fill="#4A484A" p-id="9252"></path><path d="M646.31 480.16H392.22c-4.88 0-9.75 0.05-14.62 0-3.07 0-6.66-1-9.68-0.23-5.44 1.31-5.28 9.45 0 10.85a13.14 13.14 0 0 0 4.46 0.55c6.42-0.74 7.5-8.61 1.49-11.05-4.19-1.7-9.83-1.09-13.5-3.85l2.58 6.35-8.27 3.36a23.94 23.94 0 0 1 2.4 1.41l5.68-9.71c-3.28-2-6.85-3.42-10.11-5.43-1.71-1.05-3.5-2.84-5.53-3.3a5.67 5.67 0 0 0-5.48 9.4 12 12 0 0 0 3.36 2.59c5 2.52 10.45-2.6 7.69-7.7-1.18-2.18-3.92-3.81-5.66-5.45-2.43-2.3-4.5-4.85-6.72-7.34l-8 8c1 1.24 1.38 1.49 1.14 0.74l6.35-8.26c2.36 0.64 0.73-0.36-0.33-2.1-1-1.57-1.85-3.19-2.71-4.83s-1.62-4.05-3.12-5.49c-4.18-4-10.55 0.06-9.4 5.47a12 12 0 0 0 1.66 4 5.68 5.68 0 0 0 10.49-2.84c0.13-2.09-1.23-4.55-1.83-6.47-0.49-1.57-0.91-3.17-1.31-4.77-0.1-0.38-0.41-3.81-0.67-2.36l-5.43 4.13h0.06l-5.62-5.62a21.9 21.9 0 0 1-0.06 2.92h11.25c0.06-6.26-0.53-12.58-0.53-18.87v-129.5-10.38c0-2.38-0.37-5.48 0.54-7.7l-2.52 3.32 0.18-0.11-8.45-4.81c0-0.71-0.15-0.28-0.58 1.28l10.84 3c1.59-4.89 2.58-10.09 4.11-15.05 1.84-5.95-7.72-10.27-10.28-4.33-0.58 1.34-1.16 2.68-1.72 4-2.43 5.84 7.63 10.13 10.28 4.34a120.78 120.78 0 0 1 8.23-14.32c3.95-6.21-5.56-11.44-9.71-5.68-0.14 0.2-1.53 2-0.8 1.11-4.7 5.42 2.78 13.14 8 8 1.86-1.86 3.39-4 5.25-5.9 2-2 4.33-3.65 6.32-5.67l-8-8a16.11 16.11 0 0 1-1.86 2l6.82-0.88h-0.06l2 7.69c-0.67 1.06 0.08 0 0.56-0.27a38.28 38.28 0 0 0 3.48-2.19 74.92 74.92 0 0 1 7.88-4c6.64-3 0.88-12.52-5.68-9.71l-2.61 1.12c-6.36 2.72-1.37 11.14 4.33 10.28 2.47-0.37 4.64-1.63 7-2.35a73.87 73.87 0 0 1 8-1.76l-3-10.85c-2.42 0.61-3.51 0.11-0.06 0.69v10.85c5.33-1.85 14.24-0.63 20.56-0.63h238.47c5.28 0 10.56-0.06 15.84 0 3.58 0 7.33 0.8 10.87 0.23 4.66-0.76 5.57-8.3 1.35-10.28a12.29 12.29 0 0 0-7.27-1c-4.71 0.88-5.49 8.14-1.34 10.28 2.18 1.12 4.77 1.27 7.11 1.84a75.08 75.08 0 0 1 9.27 3c5.89 2.27 10.18-7.75 4.33-10.28-1.34-0.58-2.68-1.16-4-1.72-5.84-2.43-10.13 7.63-4.34 10.28a87.36 87.36 0 0 1 8.59 4.46c2.19 1.3 4.59 3.83 7.13 4.3 5.69 1 9.09-5 5.47-9.41a12.59 12.59 0 0 0-3.34-2.59c-3.95-2.28-8.08 0.71-8.46 4.86-0.28 3 2.56 4.84 4.47 6.54 1.71 1.52 6.35 5.32 6.78 6.64l0.57-4.34v0.13l8.83-1.14c0.62 0.36 0.51 0-0.34-1.22L681.5 254c3 4.62 5.24 9.64 8.25 14.24 4 6.14 12.77 0.83 9.71-5.68 0.48 1-0.4-1.07-0.48-1.29-2.63-6.54-12.82-4.18-10.85 3 0.68 2.5 1.7 4.89 2.39 7.39 0.39 1.44 0.58 3 1.05 4.4 0.28 0.83-0.25 1.94 0.29 0.43l10.28-1.34c1.35 2.35 0.58 2.59 0.7-0.23h-11.25c0 6.27 0.54 12.57 0.52 18.87v132.59c0 3.9 0.11 7.79-0.11 11.68-0.11 2.13-0.64 4.34-0.13 6.45 1.31 5.44 9.45 5.28 10.85 0a13.12 13.12 0 0 0 0.55-4.45c-0.74-6.42-8.61-7.51-11-1.5-1.05 2.58-1.18 5.84-2 8.55a57.26 57.26 0 0 1-2.33 6.48c-2.45 6 7.15 9.69 10.28 4.34 0.47-0.8 0.85-1.65 1.26-2.47l-9.72-5.68c-1.11 2.29-2.24 4.58-3.53 6.78-1.57 2.71-4.51 5.63-5.22 8.74a5.67 5.67 0 0 0 9.4 5.47 12 12 0 0 0 2.59-3.36c2.51-5-2.6-10.47-7.7-7.69-2.34 1.28-4 4.22-5.85 6.09-2.2 2.26-4.57 4.3-7 6.33-4.81 4.07 1.7 12.7 6.82 8.84 1.15-0.87 2.32-1.75 3.39-2.7 4.71-4.17-1.61-12.62-6.81-8.83a82.66 82.66 0 0 1-14.33 8.34c-5.72 2.63-1.57 12.74 4.34 10.29l4-1.73c6.19-2.67 1.51-11.4-4.33-10.28-2.46 0.47-4.68 1.69-7.08 2.38-2.63 0.75-5.36 1-8 1.73l3 10.85c2.08-0.56 2-0.76-0.12-0.63l-2.48-9.4c2.66-2.23-1.77-1-2.77-0.92-1.55 0.07-3 0.08-4.59 0.27a26.19 26.19 0 0 0-8.08 2.32 26.88 26.88 0 0 0-12 11.09c-5.19 9.46-3.15 21.32 3.83 29.3 7.53 8.62 18.15 9.18 28.77 7.94a101.38 101.38 0 0 0 30.99-8.69 98.5 98.5 0 0 0 45.68-43c12.82-24.48 11-51.57 10.92-78.35-0.07-30.5 0.18-61 0.12-91.51 0-13.24 0.68-26.76-1.31-39.9a99 99 0 0 0-10.2-30.85c-9.85-18.9-26-34.91-45.53-43.7-24.68-11.14-52.12-8.72-78.53-8.72H423.79c-15.15 0-30.33-0.26-45.48 0a101.54 101.54 0 0 0-33.31 6.19c-21.55 8-40.09 23.12-51.45 43.18A99.32 99.32 0 0 0 281.39 274c-1.58 14.42-0.59 29.33-0.59 43.82v91.48c0 14.35-0.71 28.89 1.75 43.09A94.47 94.47 0 0 0 297.27 488a97.13 97.13 0 0 0 59 41.07c13.45 3.06 27.13 2.59 40.83 2.59h230.34c12.12 0 25.52 2.07 35.49-6.27a25 25 0 0 0 7.17-28.73 26.07 26.07 0 0 0-23.79-16.51c-7.24-0.24-7.23 11 0 11.25 9.07 0.31 16.68 9.34 14.05 18.49-3.51 12.18-17.08 10.52-26.92 10.52H383.87c-24.37 0-47.4-6.71-65.18-24.06a88.28 88.28 0 0 1-26.59-61.64c-0.67-27.68-0.05-55.45-0.05-83.14v-41.74c0-12.79-1-26 1-38.7 3.39-22.34 15.4-43 33.76-56.36 17.63-12.82 37.57-17.22 59-17.24q83.54-0.08 167.09 0h82.42c22.66-0.06 43.84 3 62.32 17.06a89.39 89.39 0 0 1 31.64 47.11c2.9 10.55 3.1 21 3.15 31.87q0.12 20.88 0.06 41.78c0 27.62-0.21 55.24 0.08 82.86 0.24 23.23-1.73 45.4-15.35 64.93a88.65 88.65 0 0 1-45.55 33.18c-8.39 2.67-19.79 5.79-28.6 3.78-8.62-2-14-12.63-9.83-20.59a15.67 15.67 0 0 1 11.09-7.9c4.8-0.82 10.55 0.78 14.57-2.58 3.32-2.79 1.33-8.36-2.49-9.4a9.18 9.18 0 0 0-5.86 0.62c-6.67 2.48-4.1 12.85 3 10.85 2.61-0.74 5.34-1 8-1.73 2.4-0.69 4.63-1.91 7.08-2.38l-4.34-10.28c-1.54 0.64-2 0.84-1.34 0.59l4.33 10.28a82.71 82.71 0 0 0 14.33-8.35l-6.82-8.83c-0.36 0.31-0.75 0.65-1.12 0.93l6.82 8.84c1.95-1.66 3.9-3.29 5.72-5.09q1.88-1.85 3.62-3.83c0.54-0.61 3.2-2.84 1.2-1.75l-7.69-7.69c-0.52 1 0 0.32-0.84 1.08l9.41 5.47c-0.56 2.39 1.43-1.76 1.89-2.48 1.06-1.65 2.08-3.31 3-5s1.83-3.53 2.7-5.32c3.14-6.47-6.48-12.18-9.72-5.68-0.41 0.82-0.78 1.68-1.25 2.47l10.28 4.33c0.3-0.73 1.8-4.64 2.32-6.48 0.78-2.75 0.9-5.94 2-8.55L692 440.1c0.15 1.29-0.06 1.12-0.15 1.46h10.85c0.56 2.31 0.35-0.93 0.4-1.61 0.14-1.91 0.22-3.82 0.26-5.74 0.05-3.24 0-6.49 0-9.73V315.56 293.8c0-6.3-0.54-12.6-0.52-18.87 0-7.27-11-7.21-11.25 0-0.09 2-0.21 4.1 0.83 5.9 2.55 4.44 8.72 3.07 10.28-1.34 1.95-5.47-2.31-13.06-3.72-18.2l-10.85 3c0.53 1.33 1 2.68 1.62 4l9.71-5.68c-3-4.6-5.25-9.62-8.25-14.23-4.05-6.23-12.5-0.85-9.71 5.67a11.8 11.8 0 0 0 2.09 3.51c2.21 2.51 7.42 2.09 8.84-1.14 3.38-7.68-7.39-14-11.88-18.58l1.64 4-8.46 4.85c0.74 0.43 0.28-0.1 1.06 0.84l5.47-9.4c1.89 0.35-0.95-0.94-1.59-1.37-1.39-0.94-2.84-1.81-4.31-2.64a95.362 95.362 0 0 0-7.13-3.62l-4.33 10.28c-0.65-0.25-0.2-0.05 1.34 0.59l4.35-10.37a76.27 76.27 0 0 0-7.66-2.53c-1.56-0.42-3.13-0.75-4.7-1.08-0.58-0.13-3.33-1.07-1.33 0l-1.34 10.29c-2.72 0.51 0.21 0.29-1.27 0.15 0.61 0.06 1.75 0.56-0.14-0.33l1.34-10.28c2.25-0.37-1.33-0.36-2.06-0.41q-2.91-0.19-5.82-0.22c-5.28-0.05-10.56 0-15.84 0H391.38c-7.34 0-16.48-1.43-23.55 1-4.72 1.64-5.93 9.85 0 10.85 2.13 0.36 4-0.18 6-0.69 7.1-1.76 4.05-12.18-3-10.85a81.69 81.69 0 0 0-8 1.76c-2.37 0.71-4.54 2-7 2.35l4.34 10.28 2.61-1.12-5.68-9.71c-5.28 2.35-12.73 5.39-16 10.52a5.71 5.71 0 0 0 2 7.7h0.06a5.79 5.79 0 0 0 6.82-0.87 18.61 18.61 0 0 0 1.86-2c4.65-5.43-2.82-13.19-8-8-2 2-4.31 3.65-6.31 5.67s-3.4 4-5.26 5.9l8 8c0.93-1.07 1.73-2.24 2.55-3.39l-9.71-5.68a122.25 122.25 0 0 0-8.25 14.35L335.2 267c-0.25 0.64-0.05 0.19 0.59-1.35l-10.28-4.34c-1.53 5-2.52 10.16-4.1 15.05-2.28 7 8.22 9.55 10.84 3a9.33 9.33 0 0 0 1-4.27c-0.35-4.21-4.52-7.06-8.47-4.86-4.51 2.53-3.68 9.83-3.71 14.16v137.88c0 6.91 0.6 13.87 0.53 20.75-0.08 7.28 10.84 7.19 11.25 0a21.9 21.9 0 0 0 0.06-2.92c-0.29-3.33-2.37-5.22-5.63-5.63h-0.06c-2.23-0.28-5 1.93-5.42 4.13a19.83 19.83 0 0 0 0.67 8.34 72.85 72.85 0 0 0 1.82 6.34c0.32 0.93 0.77 4.2 0.92 1.91l10.48-2.84c-0.66-1-0.29-0.15-0.53-1.28l-9.4 5.48c-1.81-1.74 1 2.52 1.36 3.21a69 69 0 0 0 3.7 6.4c1.52 2.3 3.23 4.93 6.06 5.7 4.47 1.21 9.22-4.1 6.36-8.27a14.82 14.82 0 0 0-2.9-3c-5.51-4.63-12.83 2.49-8 8 1.83 2 3.52 4.17 5.46 6.11 1.25 1.24 2.57 2.4 3.88 3.56 0.59 0.53 2.33 2.78 1.29 0.84l7.69-7.69c-1-0.52-0.32 0-1.07-0.84l-5.48 9.4c-1.84-0.42-0.05 0.26 0.88 0.88 1.15 0.76 2.29 1.51 3.5 2.18 2.84 1.58 5.8 2.87 8.58 4.54 6.24 3.74 11.81-5.88 5.68-9.71a23.94 23.94 0 0 0-2.4-1.41c-3.52-1.68-6.87-0.22-8.26 3.36-1 2.5 0.72 4.95 2.59 6.35 4.67 3.51 11.05 2.9 16.19 5l1.5-11.05c-1.3 0.15-1.13-0.06-1.47-0.15v10.85c-2.22 0.54 1.22 0.36 2.08 0.42 1.78 0.13 3.56 0.2 5.35 0.21h267.92c7.3-0.03 7.31-11.28 0.06-11.28z" fill="#231815" p-id="9253"></path><path d="M146.58 349.04m12 0l697.82 0q12 0 12 12l0 463.19q0 12-12 12l-697.82 0q-12 0-12-12l0-463.19q0-12 12-12Z" fill="#72C1E8" p-id="9254"></path><path d="M146.58 426.16H868.4v59.07H146.58z" fill="#AFADAD" p-id="9255"></path><path d="M331.82 548.05m12 0l327.35 0q12 0 12 12l0 138.17q0 12-12 12l-327.35 0q-12 0-12-12l0-138.17q0-12 12-12Z" fill="#F1DDD5" p-id="9256"></path><path d="M861.23 830.6H222.54c-19.44 0-39.22 1.06-58.64 0-8.69-0.47-6.86-10.36-6.86-16.45V363.89c0-4.39 0.8-8.76 6.38-9.23 1.23-0.1 2.52 0 3.75 0h688.08c5.72 0 12.22-0.46 12.36 7.51 0.15 9.21 0 18.44 0 27.65v419.77c0 6 2.56 20.53-6.38 21-7.2 0.39-7.24 11.65 0 11.25 10.76-0.58 17.53-8.67 17.63-19.11V448.31c0-28.76 0.39-57.55 0-86.3-0.14-10.23-7.21-18.22-17.66-18.65-1.35-0.05-2.71 0-4.06 0H166.69a37.35 37.35 0 0 0-6.07 0.28c-9.6 1.54-14.75 9.85-14.83 19-0.09 10 0 20 0 30v430.67c0.16 10.21 7.29 18.11 17.67 18.54 5 0.21 10.13 0 15.17 0h682.6c7.24 0 7.25-11.25 0-11.25z" fill="#231815" p-id="9257"></path><path d="M873.23 479.6H180.76c-9.2 0-18.95-0.93-28.12 0h-1.23l5.63 5.63v-59.07l-5.63 5.63h692.48c9.2 0 19 0.93 28.12 0h1.22l-5.62-5.63v59.07c0 7.24 11.25 7.25 11.25 0v-59.07a5.71 5.71 0 0 0-5.63-5.62H180.76c-9.36 0-18.76-0.28-28.12 0h-1.23a5.7 5.7 0 0 0-5.62 5.62v59.07a5.7 5.7 0 0 0 5.62 5.62h692.48c9.36 0 18.76 0.27 28.12 0h1.22c7.24 0 7.25-11.25 0-11.25zM676 704.6H367.13c-6.08 0-12.41 0.52-18.48 0-7-0.59-6.38-6.81-6.38-11.88v-89c0-14.29-0.79-28.84 0-43.12 0.5-8.91 10.68-7 17-7H648c8.87 0 17.75-0.12 26.61 0 4.35 0.06 7.5 2.27 7.73 7 0.24 4.87 0 9.81 0 14.68v117.44c0 5 0.61 11.5-6.37 11.88-7.2 0.39-7.25 11.65 0 11.25 11.2-0.61 17.62-9.14 17.62-19.81v-86.58c0-16.06 0.19-32.13 0-48.18-0.12-10.33-7.09-18.43-17.69-18.85-2-0.08-4 0-6.07 0H432.19c-27.44 0-54.89-0.33-82.33 0-9 0.1-17.06 5.5-18.56 14.82-0.67 4.12-0.28 8.52-0.28 12.67v121c0 5.52-0.51 11.2 2.42 16.19 3.68 6.29 10.21 8.7 17.11 8.74 28.55 0.18 57.1 0 85.64 0H676c7.24 0 7.25-11.25 0-11.25z" fill="#231815" p-id="9258"></path><path d="M800 170.7h-0.05c-24.78-5.7-35.37-28.7-38.31-36.56a1 1 0 0 0-1.8 0c-2.94 7.86-13.53 30.86-38.28 36.55h-0.08a1 1 0 0 0-0.23 1.81c10.48 4.92 36.92 19.95 39.32 47.18h0.34c2.38-27.4 28.77-42.3 39.28-47.18a1 1 0 0 0-0.19-1.8z" fill="#FFCD2C" p-id="9259"></path><path d="M801.47 165.28c-13.29-3-23.57-12.37-30.22-23.95-2.1-3.66-3.15-9.05-6.16-11.72a6.5 6.5 0 0 0-9.21 0.56c-1.63 1.87-2 3.89-2.86 5.82-5.24 11.23-13.43 21.32-24.88 26.6-4.79 2.21-17.76 4.31-11.81 12.74 2.51 3.57 8.87 5.47 12.53 7.8 13 8.27 24.44 20.66 26.09 36.57 0.32 3 2.32 5.63 5.63 5.63h0.35c3.27 0 5.31-2.6 5.62-5.63 1.38-13.5 9.89-24.7 20.45-32.7a85.67 85.67 0 0 1 12.65-8c2-1 4.11-1.78 5.49-3.71 2.47-3.46 0.78-7.23-2.32-9.48-5.87-4.26-11.49 5.49-5.68 9.71l0.65 0.47-2.79-4.81 0.1 0.74 1.64-4c-0.72 0.84-3.35 1.68-4.53 2.32Q789 172 785.88 174a85.88 85.88 0 0 0-13.19 10.46c-9.78 9.57-16 21.54-17.39 35.2l5.63-5.62h-0.35l5.62 5.62c-1.42-13.65-7.64-25.52-17.41-35.1a87.42 87.42 0 0 0-13.4-10.56q-3-1.93-6-3.63c-1.2-0.67-3.85-1.5-4.62-2.4l1.65 4 0.09-0.74-2.83 4.77c-1.1 0.16-0.82 0.07 0.83-0.28 0.94-0.24 1.86-0.52 2.78-0.82 1.34-0.45 2.64-1 3.94-1.5a52.22 52.22 0 0 0 8.39-4.37 58.79 58.79 0 0 0 12.89-11.44 73.88 73.88 0 0 0 8.35-12.24c0.9-1.65 1.72-3.35 2.49-5.07 0.37-0.85 0.75-1.71 1.09-2.57 0.58-1.45 1.61-1.93-0.07-0.18l-4 1.65h0.73l-4-1.65c-1.69-1.75-0.66-1.27-0.08 0.18 0.35 0.86 0.72 1.72 1.1 2.57a72 72 0 0 0 2.48 5.07 73.33 73.33 0 0 0 8.4 12.28c7.54 9 18 15.9 29.48 18.5 7.05 1.59 10.06-9.25 2.99-10.85z" fill="#141E3D" p-id="9260"></path><path d="M128.11 492.41h-0.05c-24.75-5.71-35.34-28.72-38.28-36.55a1 1 0 0 0-1.79 0c-2.94 7.83-13.54 30.84-38.28 36.55h-0.09a1 1 0 0 0-0.23 1.81c10.48 4.92 36.92 19.94 39.32 47.18h0.35c2.37-27.41 28.76-42.31 39.27-47.19a1 1 0 0 0-0.22-1.8z" fill="#FFCD2C" p-id="9261"></path><path d="M129.62 487c-13.29-3-23.58-12.37-30.22-24-2.11-3.66-3.15-9-6.16-11.71a6.5 6.5 0 0 0-9.22 0.55c-1.63 1.87-2 3.89-2.85 5.82-5.24 11.26-13.44 21.34-24.88 26.64-4.8 2.21-17.76 4.3-11.82 12.73 2.52 3.58 8.87 5.47 12.53 7.81 13 8.26 24.44 20.66 26.1 36.57 0.31 3 2.32 5.62 5.62 5.62h0.35c3.27 0 5.31-2.59 5.62-5.62 1.39-13.51 9.89-24.72 20.42-32.75a86.61 86.61 0 0 1 12.69-7.92c2-1.05 4.1-1.78 5.48-3.71 2.47-3.46 0.79-7.22-2.32-9.48-5.87-4.26-11.49 5.5-5.68 9.72l0.65 0.47-2.78-4.86 0.09 0.74 1.65-4c-0.73 0.85-3.35 1.68-4.54 2.32q-3.24 1.77-6.33 3.78a86.37 86.37 0 0 0-13.19 10.46c-9.78 9.58-16 21.54-17.39 35.21l5.63-5.63h-0.35l5.63 5.63c-1.43-13.66-7.64-25.53-17.42-35.11a86.94 86.94 0 0 0-13.4-10.63q-3-1.92-6-3.63c-1.21-0.66-3.86-1.5-4.63-2.39l1.65 4 0.1-0.74-2.79 4.85c-1.09 0.17-0.81 0.08 0.83-0.27 0.94-0.25 1.87-0.52 2.79-0.83 1.33-0.44 2.63-1 3.93-1.5a51 51 0 0 0 8.39-4.37 58.31 58.31 0 0 0 12.89-11.44A73.25 73.25 0 0 0 89 467.1c0.89-1.66 1.71-3.35 2.48-5.07 0.38-0.85 0.75-1.71 1.1-2.58 0.57-1.45 1.61-1.92-0.08-0.18l-4 1.65h0.73l-4-1.65c-1.69-1.74-0.65-1.27-0.07 0.18 0.34 0.86 0.71 1.73 1.09 2.58 0.77 1.72 1.59 3.41 2.48 5.07a73.25 73.25 0 0 0 8.36 12.23c7.55 9 18 15.9 29.49 18.5 7.1 1.59 10.11-9.25 3.04-10.83z" fill="#141E3D" p-id="9262"></path></svg>