<svg t="1671074234467" class="icon" viewBox="0 0 1024 1024" version="1.1" xmlns="http://www.w3.org/2000/svg" p-id="16454" width="200" height="200"><path d="M469.333333 810.666667H213.333333c-46.933333 0-85.333333-38.4-85.333333-85.333334V298.666667c0-46.933333 38.4-85.333333 85.333333-85.333334h256c46.933333 0 85.333333 38.4 85.333334 85.333334v426.666666c0 46.933333-38.4 85.333333-85.333334 85.333334z" fill="#2953FF" p-id="16455"></path><path d="M810.666667 810.666667H554.666667c-46.933333 0-85.333333-38.4-85.333334-85.333334V298.666667c0-46.933333 38.4-85.333333 85.333334-85.333334h256c46.933333 0 85.333333 38.4 85.333333 85.333334v426.666666c0 46.933333-38.4 85.333333-85.333333 85.333334z" fill="#93A8FF" p-id="16456"></path><path d="M512 810.666667c-34.133333 0-61.866667-27.733333-61.866667-61.866667V275.2c0-34.133333 27.733333-61.866667 61.866667-61.866667 34.133333 0 61.866667 27.733333 61.866667 61.866667v473.6c0 34.133333-27.733333 61.866667-61.866667 61.866667z" fill="#FCCA1E" p-id="16457"></path></svg>