<svg t="1672800993378" class="icon" viewBox="0 0 1024 1024" version="1.1" xmlns="http://www.w3.org/2000/svg" p-id="1573" width="150" height="150"><path d="M812.1344 752.64H220.0576C146.5856 752.64 87.04 693.0944 87.04 619.6224V248.4736c0-73.472 59.5456-133.0176 133.0176-133.0176h592.0768c73.472 0 133.0176 59.5456 133.0176 133.0176v371.1488c0 73.472-59.5456 133.0176-133.0176 133.0176z" fill="#F1A883" p-id="1574"></path><path d="M818.944 209.664H213.248C143.5648 209.664 87.04 266.1888 87.04 335.872v290.56C87.04 696.1152 143.5648 752.64 213.248 752.64h605.6448c69.7344 0 126.208-56.5248 126.208-126.208V335.872c0.0512-69.6832-56.4736-126.208-126.1568-126.208z" fill="#F09B77" p-id="1575"></path><path d="M818.944 310.272H213.248C143.5648 310.272 87.04 366.7968 87.04 436.48v189.952C87.04 696.1152 143.5648 752.64 213.248 752.64h605.6448c69.7344 0 126.208-56.5248 126.208-126.208v-189.952c0.0512-69.6832-56.4736-126.208-126.1568-126.208z" fill="#EF8461" p-id="1576"></path><path d="M818.944 410.88H213.248C143.5648 410.88 87.04 467.4048 87.04 537.088v89.344C87.04 696.1152 143.5648 752.64 213.248 752.64h605.6448c69.7344 0 126.208-56.5248 126.208-126.208V537.088c0.0512-69.6832-56.4736-126.208-126.1568-126.208z" fill="#EE7553" p-id="1577"></path><path d="M213.248 511.488c-67.7888 0-122.9824 53.504-125.952 120.576 2.9696 67.072 58.112 120.576 125.952 120.576h605.6448c67.7888 0 122.9824-53.504 125.952-120.576-2.9696-67.072-58.112-120.576-125.952-120.576H213.248zM733.7984 917.9136H298.3936c-29.9008 0-54.1696-24.2688-54.1696-54.1696s24.2688-54.1696 54.1696-54.1696h435.4048c29.9008 0 54.1696 24.2688 54.1696 54.1696s-24.2688 54.1696-54.1696 54.1696z" fill="#EE6342" p-id="1578"></path><path d="M449.1776 621.824c-14.7968 0-29.5936-3.8912-43.0592-11.6736-26.9824-15.5648-43.0592-43.4688-43.0592-74.5984V332.544c0-31.1296 16.128-59.0336 43.0592-74.5984 26.9824-15.5648 59.1872-15.5648 86.1696 0l175.8208 101.4784c26.9824 15.5648 43.0592 43.4688 43.0592 74.5984s-16.128 59.0336-43.0592 74.5984l-175.8208 101.4784c-13.5168 7.8336-28.3136 11.7248-43.1104 11.7248z m0-293.5808c-0.6144 0-1.3312 0.1536-2.1504 0.6144-2.0992 1.2288-2.0992 2.9184-2.0992 3.6864v203.008c0 0.7168 0 2.4576 2.0992 3.6864s3.584 0.3584 4.2496 0l175.8208-101.4784c0.6144-0.3584 2.0992-1.2288 2.0992-3.6864s-1.4848-3.328-2.0992-3.6864L451.2768 328.8576c-0.4096-0.2048-1.0752-0.6144-2.0992-0.6144z" fill="#FFFFFF" p-id="1579"></path></svg>