<svg t="1672801051582" class="icon" viewBox="0 0 1024 1024" version="1.1" xmlns="http://www.w3.org/2000/svg" p-id="2199" width="150" height="150"><path d="M931.6352 472.4736l-91.0848-91.0848V252.6208c0-34.3552-27.8528-62.208-62.208-62.208h-128.8192L558.4896 99.328c-24.2688-24.2688-63.6928-24.2688-87.9616 0L379.4432 190.4128H250.6752c-34.3552 0-62.208 27.8528-62.208 62.208v128.768L97.3824 472.4736c-24.2688 24.2688-24.2688 63.6928 0 87.9616l91.0848 91.0848v128.8192c0 34.3552 27.8528 62.208 62.208 62.208h128.768l91.0848 91.0848c24.2688 24.2688 63.6928 24.2688 87.9616 0l91.0848-91.0848h128.8192c34.3552 0 62.208-27.8528 62.208-62.208v-128.8192l91.0848-91.0848c24.2688-24.2688 24.2688-63.6928-0.0512-87.9616z" fill="#4FE99D" p-id="2200"></path><path d="M924.8256 567.296l-84.224-84.224V354.2528c0-34.3552-27.8528-62.208-62.208-62.208h-128.768l-91.0848-91.0848c-24.2688-24.32-63.6928-24.32-87.9616 0l-91.136 91.0848H250.6752c-34.3552 0-62.208 27.8528-62.208 62.208V483.0208L104.2432 567.296l84.224 84.224V780.288c0 34.3552 27.8528 62.208 62.208 62.208h128.768l91.0848 91.0848c24.32 24.2688 63.6928 24.2688 87.9616 0l91.0848-91.0848h128.768c34.3552 0 62.208-27.8528 62.208-62.208V651.52l84.2752-84.224z" fill="#4EE5A1" p-id="2201"></path><path d="M836.7104 584.704V455.8848c0-34.3552-27.8528-62.208-62.208-62.208h-128.768L554.6496 302.592c-24.32-24.2688-63.6928-24.2688-87.9616 0L375.6032 393.6768H246.8352c-34.3552 0-62.208 27.8528-62.208 62.208v128.768l-31.488 31.488 35.328 35.328v128.768c0 34.3552 27.8528 62.208 62.208 62.208h128.768l91.0848 91.0848c24.32 24.2688 63.6928 24.2688 87.9616 0l91.0848-91.0848h128.768c34.3552 0 62.208-27.8528 62.208-62.208v-128.768l31.488-31.488-35.328-35.2768z" fill="#45DDA3" p-id="2202"></path><path d="M840.5504 557.568c0-34.3552-27.8528-62.208-62.208-62.208h-128.768l-91.0848-91.0848c-24.2688-24.32-63.6928-24.32-87.9616 0L379.4432 495.36H250.6752c-34.3552 0-62.208 27.8528-62.208 62.208v222.72c0 34.3552 27.8528 62.208 62.208 62.208h128.768l91.0848 91.0848c24.32 24.2688 63.6928 24.2688 87.9616 0l91.0848-91.0848h128.768c34.3552 0 62.208-27.8528 62.208-62.208v-222.72z" fill="#48D3A1" p-id="2203"></path><path d="M250.6752 842.496h128.768l91.0848 91.0848c24.32 24.2688 63.6928 24.2688 87.9616 0l91.0848-91.0848h128.768c30.72 0 56.2176-22.3232 61.2352-51.6096l-2.8672-2.8672v-128.768c0-34.3552-27.8528-62.208-62.208-62.208h-128.768l-91.0848-91.0848c-24.32-24.2688-63.6928-24.2688-87.9616 0L375.6032 596.992H246.8352c-30.72 0-56.2176 22.3232-61.2352 51.6096l2.8672 2.8672v128.768c0 34.4064 27.8528 62.2592 62.208 62.2592z" fill="#3ACC9B" p-id="2204"></path><path d="M470.4768 681.9328c-16.6912 0-32.3584-7.168-43.264-19.9168l-111.4112-129.8944c-14.7456-17.152-12.7488-43.008 4.4032-57.7536 17.152-14.7456 43.008-12.7488 57.7536 4.4032l91.3408 106.496 173.1072-228.2496a40.97024 40.97024 0 0 1 65.28 49.5104l-191.744 252.8256c-10.496 13.824-26.4192 22.016-43.7248 22.528-0.5632 0.0512-1.1264 0.0512-1.7408 0.0512z" fill="#FFFFFF" p-id="2205"></path></svg>