<svg t="1672800934729" class="icon" viewBox="0 0 1024 1024" version="1.1" xmlns="http://www.w3.org/2000/svg" p-id="1416" width="150" height="150"><path d="M741.9904 932.3008H288.1536c-83.2 0-150.6304-67.4304-150.6304-150.6304v-532.48c0-83.2 67.4304-150.6304 150.6304-150.6304h453.8368c83.2 0 150.6304 67.4304 150.6304 150.6304v532.5312c0 83.1488-67.4304 150.5792-150.6304 150.5792z" fill="#EB545E" p-id="1417"></path><path d="M831.9488 541.4912H198.1952c-21.6576 0-42.1888 4.8128-60.672 13.1584v235.0592c0 78.7456 65.024 142.592 145.2032 142.592h464.5888c80.2304 0 145.2032-63.8464 145.2032-142.592v-235.0592a146.1248 146.1248 0 0 0-60.5696-13.1584z" fill="#E6494E" p-id="1418"></path><path d="M831.9488 677.4272H198.1952c-21.6576 0-42.1888 4.8128-60.672 13.1584v99.1232c0 78.7456 65.024 142.592 145.2032 142.592h464.5888c80.2304 0 145.2032-63.8464 145.2032-142.592v-99.1232a146.1248 146.1248 0 0 0-60.5696-13.1584z" fill="#E93838" p-id="1419"></path><path d="M892.6208 364.4928v-123.392c0-78.7456-65.024-142.5408-145.2032-142.5408H282.7776c-80.1792 0-145.2032 63.8464-145.2032 142.592v103.68c93.2352 44.8512 221.44 86.272 377.5488 86.272 132.8128-0.0512 265.3184-30.0544 377.4976-66.6112z" fill="#F0606D" p-id="1420"></path><path d="M892.6208 364.4928V250.4704a146.95424 146.95424 0 0 0-60.672-13.1584H198.1952c-21.6576 0-42.1888 4.8128-60.672 13.1584v94.3104c93.2352 44.8512 221.44 86.272 377.5488 86.272 132.864 0 265.3696-30.0032 377.5488-66.56z" fill="#EB545E" p-id="1421"></path><path d="M892.6208 324.6592c-2.4576 0.3072-4.9664 0.8192-7.424 1.6384-99.072 31.8464-193.3312 52.0192-281.2928 60.3136-14.6944-33.8944-48.9472-57.6512-88.832-57.6512-39.7824 0-73.8816 23.6544-88.6784 57.344C330.752 376.32 238.1312 350.3616 150.016 308.5824c-4.0448-1.8944-8.2432-3.072-12.4928-3.6352v86.6816c93.3888 41.2672 191.1808 66.56 291.9936 75.7248 16.0768 30.3104 48.3328 51.0464 85.5552 51.0464 37.12 0 69.3248-20.6336 85.4528-50.7904 91.8528-7.7312 189.696-27.5456 292.096-59.2384V324.6592z" fill="#FFFFFF" p-id="1422"></path></svg>